<svg width="45" height="45" viewBox="0 0 45 45" fill="none" xmlns="http://www.w3.org/2000/svg">
<g clip-path="url(#clip0_666_308)">
<mask id="mask0_666_308" style="mask-type:luminance" maskUnits="userSpaceOnUse" x="0" y="0" width="45" height="45">
<path d="M45 0H0V45H45V0Z" fill="white"/>
</mask>
<g mask="url(#mask0_666_308)">
<path d="M9.67116 41.9173H35.3306L35.3319 41.9159H9.6698L9.67116 41.9173Z" fill="#C42126"/>
<path d="M22.5005 0.9375C22.0586 0.9375 21.6201 0.953461 21.1849 0.978348H23.8163C23.3808 0.953461 22.9425 0.9375 22.5005 0.9375Z" fill="#C42126"/>
<path d="M29.1506 9.16542H39.8945C38.6183 7.6119 37.1352 6.23663 35.492 5.07239H27.4243C28.0919 6.24689 28.666 7.63277 29.1506 9.16542Z" fill="#E7E7E7"/>
<path d="M27.4246 5.07248H35.4923C32.1571 2.70894 28.1529 1.22881 23.8166 0.978394H23.1238C25.1648 1.23528 26.1023 2.7458 27.4246 5.07248Z" fill="#DC3027"/>
<path d="M44.162 17.3532C43.7619 15.9265 43.2255 14.5576 42.5662 13.2601H30.2057C30.4561 14.5743 30.6537 15.947 30.8 17.3532H44.162Z" fill="#E7E7E7"/>
<path d="M29.5104 13.2596H42.5656C41.8217 11.7963 40.9279 10.4232 39.8947 9.16589H28.4904C28.8926 10.4388 29.2339 11.812 29.5104 13.2596Z" fill="#DC3027"/>
<path d="M31.2728 25.5411H44.899C44.9637 24.8487 45.0002 24.147 45.0002 23.4379C45.0002 22.7668 44.9651 22.1043 44.9075 21.4478H31.276C31.3204 22.8091 31.3197 24.1805 31.2728 25.5411Z" fill="#E7E7E7"/>
<path d="M44.9078 21.4469C44.7845 20.0411 44.5312 18.6733 44.1614 17.3539H30.2255C30.3654 18.6943 30.4578 20.0656 30.503 21.4469H44.9078Z" fill="#DC3027"/>
<path d="M29.9701 33.7291H42.5067C43.1753 32.4331 43.7202 31.0631 44.1288 29.6354H30.5762C30.4269 31.0437 30.2244 32.416 29.9701 33.7291Z" fill="#E7E7E7"/>
<path d="M44.1292 29.6346C44.5069 28.3155 44.7691 26.9478 44.8994 25.5416H30.8483C30.8003 26.924 30.7052 28.2949 30.5624 29.6346H44.1292Z" fill="#DC3027"/>
<path d="M35.3317 41.916C36.9986 40.7563 38.5027 39.3797 39.7991 37.8229H29.2425C28.749 39.3619 28.1632 40.7456 27.4835 41.916H35.3317Z" fill="#E7E7E7"/>
<path d="M28.8452 37.8226H39.7991C40.8443 36.5667 41.7516 35.1936 42.5065 33.7289H29.878C29.5977 35.1775 29.2528 36.5514 28.8452 37.8226Z" fill="#DC3027"/>
<path d="M22.5004 45.9379C27.2705 45.9379 31.6903 44.449 35.3304 41.9177H27.1873C25.7421 44.4077 24.7885 45.9379 22.5004 45.9379Z" fill="#DC3027"/>
<path d="M28.1696 5.07239H9.50965C7.86619 6.23663 6.38335 7.61177 5.10681 9.16542H29.8955C29.4108 7.63277 28.8371 6.24689 28.1696 5.07239Z" fill="#F3F4F5"/>
<path d="M9.50928 5.07248H28.1692C26.8466 2.7458 25.1644 1.23528 23.1234 0.978394H21.1847C16.8484 1.22881 12.8441 2.70894 9.50928 5.07248Z" fill="#E73625"/>
<path d="M0.84021 17.3532H31.5095C31.3631 15.9467 31.1656 14.5743 30.9152 13.2601H2.43604C1.77663 14.5577 1.24026 15.9265 0.84021 17.3532Z" fill="#F3F4F5"/>
<path d="M5.10665 9.16565C4.07427 10.4229 3.17973 11.796 2.43616 13.2594H30.9149C30.6389 11.812 30.2975 10.4389 29.8953 9.16565H5.10665Z" fill="#E73625"/>
<path d="M0.000854492 23.4381C0.000854492 24.1472 0.0378101 24.8488 0.102126 25.5412H31.7843C31.8312 24.1805 31.8318 22.8095 31.7875 21.4481H0.0935758C0.036005 22.1044 0.000854492 22.767 0.000854492 23.4381Z" fill="#F3F4F5"/>
<path d="M0.0936279 21.4469H31.7871C31.742 20.0653 31.6493 18.6943 31.5097 17.3539H0.839671C0.469834 18.6736 0.21656 20.0411 0.0936279 21.4469Z" fill="#E73625"/>
<path d="M31.4982 29.635H0.872192C1.28079 31.0631 1.8261 32.4327 2.49435 33.7287H30.8921C31.1465 32.4159 31.3485 31.0436 31.4982 29.635Z" fill="#F3F4F5"/>
<path d="M0.872348 29.6346H31.4983C31.6408 28.2949 31.7363 26.9236 31.7843 25.5416H0.102173C0.232515 26.9481 0.495099 28.3155 0.872348 29.6346Z" fill="#E73625"/>
<path d="M9.66971 41.916H28.1008C28.7805 40.7454 29.3666 39.3619 29.8598 37.8229H5.20227C6.49866 39.3797 8.00246 40.7563 9.66971 41.916Z" fill="#F3F4F5"/>
<path d="M2.49475 33.7289C3.24973 35.1936 4.15699 36.5667 5.2022 37.8226H29.8598C30.2669 36.5515 30.6119 35.1777 30.8921 33.7289H2.49475Z" fill="#E73625"/>
<path d="M21.5489 45.917C21.5944 45.9184 21.6398 45.9205 21.6852 45.922C21.9561 45.9315 22.2274 45.9379 22.5006 45.9379C24.7889 45.9379 26.6547 44.4078 28.1003 41.9177H9.67126C13.0673 44.2797 17.1437 45.7334 21.5489 45.917Z" fill="#E73625"/>
<path d="M22.0354 0.949341C10.5054 1.1839 1.10782 10.0864 0.0964355 21.4105H22.0358L22.0354 0.949341Z" fill="#283991"/>
<path d="M4.50336 13.6857L4.84612 14.7411H5.95669L5.05826 15.3938L5.4014 16.45L4.50336 15.797L3.60559 16.45L3.94807 15.3938L3.04993 14.7411H4.16049L4.50336 13.6857Z" fill="#EFEFEF"/>
<path d="M4.50336 17.4146L4.84612 18.4707H5.95669L5.05826 19.1233L5.4014 20.1795L4.50336 19.5265L3.60559 20.1795L3.94807 19.1233L3.04993 18.4707H4.16049L4.50336 17.4146Z" fill="#EFEFEF"/>
<path d="M8.23272 8.09082L8.5756 9.14668H9.68581L8.78765 9.79973L9.13054 10.8552L8.23272 10.2029L7.33463 10.8552L7.67744 9.79973L6.77893 9.14668H7.88949L8.23272 8.09082Z" fill="#EFEFEF"/>
<path d="M8.23272 11.8204L8.5756 12.8763H9.68581L8.78765 13.5286L9.13054 14.5848L8.23272 13.9326L7.33463 14.5848L7.67744 13.5286L6.77893 12.8763H7.88949L8.23272 11.8204Z" fill="#EFEFEF"/>
<path d="M8.23272 15.5499L8.5756 16.6061H9.68581L8.78765 17.258L9.13054 18.3142L8.23272 17.6613L7.33463 18.3142L7.67744 17.258L6.77893 16.6061H7.88949L8.23272 15.5499Z" fill="#EFEFEF"/>
<path d="M1.67177 18.3142L1.32863 17.258L2.22677 16.6057H1.11687L1.09198 16.5287C0.970086 16.9057 0.85998 17.2871 0.758423 17.673L0.774098 17.6613L1.67177 18.3142Z" fill="#EFEFEF"/>
<path d="M3.60507 12.7203L4.50284 12.0673L5.40098 12.7203L5.05783 11.6641L5.95598 11.0111H4.84541L4.50255 9.95569L4.15969 11.0111H3.75042C3.67442 11.1263 3.60089 11.2421 3.52698 11.3589L3.94765 11.6641L3.60507 12.7203Z" fill="#EFEFEF"/>
<path d="M8.23253 6.47361L9.13028 7.12587L8.78739 6.07042L9.68514 5.41748H9.04389C8.49925 5.82466 7.97378 6.25558 7.46896 6.71026L7.33362 7.12587L8.23253 6.47361Z" fill="#EFEFEF"/>
<path d="M11.0638 5.26091L11.9619 4.60797L12.8597 5.26091L12.5169 4.20469L13.4146 3.5524H12.3044L12.2579 3.41028C11.8817 3.60247 11.5093 3.80245 11.1455 4.01525L11.4063 4.20459L11.0638 5.26091Z" fill="#EFEFEF"/>
<path d="M11.9624 6.2262L12.3053 7.28135H13.4154L12.5173 7.93433L12.8601 8.99053L11.9624 8.33749L11.0642 8.99053L11.4071 7.93433L10.5087 7.28135H11.6191L11.9624 6.2262Z" fill="#EFEFEF"/>
<path d="M11.9624 9.95605L12.3053 11.0112H13.4154L12.5173 11.6641L12.8601 12.7204L11.9624 12.0673L11.0642 12.7204L11.4071 11.6641L10.5087 11.0112H11.6191L11.9624 9.95605Z" fill="#EFEFEF"/>
<path d="M11.9624 13.6857L12.3053 14.7411H13.4154L12.5173 15.3938L12.8601 16.45L11.9624 15.797L11.0642 16.45L11.4071 15.3938L10.5087 14.7411H11.6191L11.9624 13.6857Z" fill="#EFEFEF"/>
<path d="M11.9624 17.4146L12.3053 18.4707H13.4154L12.5173 19.1233L12.8601 20.1795L11.9624 19.5265L11.0642 20.1795L11.4071 19.1233L10.5087 18.4707H11.6191L11.9624 17.4146Z" fill="#EFEFEF"/>
<path d="M15.6917 4.36121L16.0345 5.41706H17.1447L16.247 6.07009L16.5894 7.12558L15.6917 6.47328L14.7933 7.12558L15.1363 6.07009L14.2379 5.41706H15.3484L15.6917 4.36121Z" fill="#EFEFEF"/>
<path d="M15.6917 8.09082L16.0345 9.14668H17.1447L16.247 9.79973L16.5894 10.8552L15.6917 10.2029L14.7933 10.8552L15.1363 9.79973L14.2379 9.14668H15.3484L15.6917 8.09082Z" fill="#EFEFEF"/>
<path d="M15.6917 11.8204L16.0345 12.8763H17.1447L16.247 13.5286L16.5894 14.5848L15.6917 13.9326L14.7933 14.5848L15.1363 13.5286L14.2379 12.8763H15.3484L15.6917 11.8204Z" fill="#EFEFEF"/>
<path d="M15.6917 15.5499L16.0345 16.6061H17.1447L16.247 17.258L16.5894 18.3142L15.6917 17.6613L14.7933 18.3142L15.1363 17.258L14.2379 16.6061H15.3484L15.6917 15.5499Z" fill="#EFEFEF"/>
<path d="M19.4212 2.49695L19.7641 3.55279H20.8743L19.9762 4.20507L20.319 5.2613L19.4212 4.60826L18.5228 5.2613L18.866 4.20507L17.9675 3.55279H19.0777L19.4212 2.49695Z" fill="#EFEFEF"/>
<path d="M19.4212 6.2262L19.7641 7.28135H20.8743L19.9762 7.93433L20.319 8.99053L19.4212 8.33749L18.5228 8.99053L18.866 7.93433L17.9675 7.28135H19.0777L19.4212 6.2262Z" fill="#EFEFEF"/>
<path d="M19.4212 9.95605L19.7641 11.0112H20.8743L19.9762 11.6641L20.319 12.7204L19.4212 12.0673L18.5228 12.7204L18.866 11.6641L17.9675 11.0112H19.0777L19.4212 9.95605Z" fill="#EFEFEF"/>
<path d="M19.4212 13.6857L19.7641 14.7411H20.8743L19.9762 15.3938L20.319 16.45L19.4212 15.797L18.5228 16.45L18.866 15.3938L17.9675 14.7411H19.0777L19.4212 13.6857Z" fill="#EFEFEF"/>
<path d="M19.4212 17.4146L19.7641 18.4707H20.8743L19.9762 19.1233L20.319 20.1795L19.4212 19.5265L18.5228 20.1795L18.866 19.1233L17.9675 18.4707H19.0777L19.4212 17.4146Z" fill="#EFEFEF"/>
</g>
</g>
<defs>
<clipPath id="clip0_666_308">
<rect width="45" height="45" fill="white"/>
</clipPath>
</defs>
</svg>
