<svg xmlns="http://www.w3.org/2000/svg" width="225" height="45" viewBox="0 0 225 45" fill="none"><path d="M48.3867 32.6441H48.5764C48.7794 32.6441 48.9583 32.5746 49.1106 32.4357C49.2628 32.2968 49.3964 32.1259 49.5112 31.9229C49.6261 31.7199 49.7142 31.5035 49.7783 31.2765C49.8424 31.0495 49.8745 30.8331 49.8745 30.6301V10.2609C49.8745 10.0846 49.8424 9.8789 49.7783 9.65186C49.7142 9.42216 49.6261 9.20848 49.5112 9.00548C49.3964 8.80248 49.2628 8.63153 49.1106 8.49264C48.9583 8.35375 48.7794 8.2843 48.5764 8.2843H48.3867V7.90234H63.0453V11.4441H62.6634C62.6126 10.8618 62.3829 10.3463 61.9769 9.90294C61.5709 9.45955 60.9352 9.23786 60.0725 9.23786H52.42V18.8696H58.7396C59.3246 18.8696 59.8107 18.6933 60.206 18.338C60.5987 17.9828 60.7963 17.5635 60.7963 17.0827H61.1783V21.8424H60.7963C60.7963 21.3857 60.6067 20.993 60.2247 20.6618C59.8428 20.3333 59.3486 20.1677 58.7396 20.1677H52.42V31.7039H60.7589C61.2397 31.7039 61.6591 31.589 62.0143 31.362C62.3696 31.1349 62.6687 30.8625 62.9091 30.5446C63.1495 30.2268 63.3284 29.8849 63.4433 29.5163C63.5582 29.1477 63.6143 28.8379 63.6143 28.5841H63.9962V33.0394H48.3867V32.6574V32.6441Z" fill="#4A4F54"></path><path d="M78.5416 32.6446C79.0224 32.6446 79.2654 32.4684 79.2654 32.1131C79.2654 31.9876 79.1132 31.7071 78.8087 31.2744L75.0025 26.0205L71.044 31.3893C70.9666 31.4908 70.8784 31.6297 70.7769 31.8086C70.6754 31.9876 70.6247 32.1398 70.6247 32.2654C70.6247 32.5191 70.7636 32.6446 71.044 32.6446V33.0266H67.4648V32.6446C67.8201 32.6446 68.202 32.4977 68.608 32.2066C69.014 31.9155 69.3559 31.5655 69.6364 31.1596L74.2439 24.9147L69.9809 19.1266C69.8527 18.9743 69.7085 18.798 69.5429 18.595C69.3773 18.392 69.1877 18.2024 68.9713 18.0234C68.7549 17.8472 68.5386 17.7003 68.3249 17.5854C68.1086 17.4705 67.9109 17.4145 67.7346 17.4145V17.0352H73.293V17.4145C73.1408 17.4145 72.9832 17.4652 72.8176 17.5667C72.652 17.6682 72.5692 17.8578 72.5692 18.1383C72.5692 18.3173 72.644 18.4935 72.7962 18.6725L75.8813 22.9355L78.814 19.0518C79.017 18.798 79.1426 18.595 79.196 18.4428C79.2467 18.2905 79.2708 18.1516 79.2708 18.0234C79.2708 17.8712 79.2254 17.7323 79.1372 17.6041C79.0491 17.4785 78.9155 17.4145 78.7366 17.4145V17.0352H82.3905V17.4145C81.9846 17.4145 81.6026 17.6121 81.2474 18.0047C80.8921 18.3974 80.5743 18.774 80.2965 19.1266L76.6024 24.0386L81.7041 30.9298C82.0326 31.3866 82.4279 31.7872 82.8847 32.1291C83.3414 32.471 83.7608 32.642 84.1401 32.642V33.0239H78.5443V32.642L78.5416 32.6446Z" fill="#4A4F54"></path><path d="M102.447 31.6539C102.244 31.6539 102.055 31.6993 101.876 31.7875C101.697 31.8756 101.494 31.9851 101.267 32.1107C100.834 32.3644 100.289 32.6235 99.6295 32.8906C98.9697 33.1577 98.107 33.2913 97.0413 33.2913C95.7458 33.2913 94.5465 33.0829 93.4434 32.6636C92.3403 32.2442 91.3867 31.6619 90.5881 30.9114C89.7894 30.1635 89.1671 29.2874 88.7237 28.2831C88.2803 27.2815 88.0586 26.1944 88.0586 25.0271C88.0586 23.9373 88.2563 22.8956 88.6489 21.9047C89.0415 20.9137 89.6078 20.0403 90.3423 19.2791C91.0795 18.5178 91.985 17.9088 93.0641 17.4521C94.1432 16.9953 95.3665 16.7656 96.7394 16.7656C97.677 16.7656 98.4409 16.8751 99.0232 17.0888C99.6081 17.3052 100.102 17.5135 100.508 17.7165C100.738 17.8447 100.96 17.9435 101.173 18.021C101.39 18.0958 101.611 18.1359 101.838 18.1359V21.0286H101.456C101.328 20.5478 101.101 20.1204 100.77 19.7545C100.439 19.3859 100.06 19.0761 99.6268 18.8223C99.1941 18.5686 98.7267 18.3789 98.2192 18.2507C97.7117 18.1252 97.2149 18.0611 96.7341 18.0611C95.6924 18.0611 94.7789 18.2454 93.9936 18.614C93.2057 18.9826 92.5593 19.4634 92.0518 20.0617C91.5443 20.6573 91.1623 21.3384 90.9086 22.0997C90.6548 22.8609 90.5266 23.6489 90.5266 24.4609C90.5266 25.4011 90.6789 26.3199 90.9834 27.22C91.2879 28.1202 91.7259 28.9268 92.2975 29.6373C92.8691 30.3478 93.5609 30.9194 94.3729 31.3494C95.1849 31.7821 96.0984 31.9958 97.1134 31.9958C97.8239 31.9958 98.4783 31.8943 99.0739 31.6913C99.6696 31.4883 100.177 31.2212 100.596 30.8927C101.016 30.5641 101.352 30.2009 101.606 29.8082C101.86 29.4156 102.012 29.0417 102.063 28.6837H102.445V31.6539H102.447Z" fill="#4A4F54"></path><path d="M108.996 25.3336C109.098 26.223 109.314 27.0671 109.643 27.8657C109.971 28.6643 110.409 29.3695 110.957 29.9785C111.502 30.5875 112.169 31.0763 112.955 31.4449C113.74 31.8135 114.656 31.9978 115.695 31.9978C116.253 31.9978 116.844 31.915 117.466 31.7494C118.088 31.5838 118.665 31.3487 119.2 31.0442C119.734 30.7397 120.209 30.3658 120.629 29.9197C121.048 29.4763 121.334 28.9742 121.486 28.4159H121.828V31.2713C121.676 31.2713 121.505 31.322 121.315 31.4235C121.125 31.525 120.901 31.6532 120.65 31.8055C120.142 32.11 119.456 32.4332 118.593 32.7751C117.73 33.117 116.587 33.2879 115.166 33.2879C114.023 33.2879 112.939 33.1223 111.91 32.7937C110.882 32.4652 109.974 31.9551 109.189 31.2713C108.401 30.5848 107.773 29.7114 107.303 28.6456C106.833 27.5799 106.598 26.3112 106.598 24.8394C106.598 23.9019 106.755 22.9483 107.073 21.9841C107.391 21.0199 107.872 20.1518 108.521 19.3772C109.167 18.6026 109.998 17.9749 111.016 17.4914C112.031 17.0106 113.249 16.7676 114.669 16.7676C115.938 16.7676 117.049 16.9839 118 17.414C118.951 17.8467 119.739 18.4423 120.361 19.2036C120.984 19.9648 121.446 20.8649 121.75 21.9066C122.055 22.9483 122.207 24.0889 122.207 25.3336H108.996ZM114.517 18.023C113.628 18.023 112.861 18.2019 112.215 18.5572C111.568 18.9124 111.016 19.3692 110.559 19.9274C110.102 20.4857 109.747 21.1214 109.493 21.8319C109.239 22.5423 109.074 23.2528 108.999 23.9633H119.849C119.822 23.2261 119.691 22.5049 119.448 21.7945C119.208 21.084 118.871 20.4483 118.438 19.89C118.006 19.3318 117.461 18.8804 116.801 18.5385C116.141 18.1966 115.38 18.0256 114.517 18.0256V18.023Z" fill="#4A4F54"></path><path d="M127.426 33.026V32.644C127.629 32.644 127.808 32.5692 127.961 32.417C128.113 32.2647 128.246 32.0885 128.361 31.8828C128.476 31.6798 128.559 31.4581 128.61 31.2177C128.66 30.9773 128.684 30.7556 128.684 30.5526V11.0595C128.684 10.6294 128.62 10.2208 128.495 9.84147C128.367 9.45951 127.987 9.25651 127.352 9.23247V8.85051L131.198 7.66992V30.5526C131.198 30.7556 131.222 30.9773 131.273 31.2177C131.323 31.4581 131.406 31.6825 131.521 31.8828C131.636 32.0858 131.761 32.2647 131.903 32.417C132.042 32.5692 132.213 32.644 132.416 32.644V33.026H127.429H127.426Z" fill="#4A4F54"></path><path d="M138.122 33.026V32.644C138.325 32.644 138.504 32.5692 138.656 32.417C138.808 32.2647 138.942 32.0885 139.057 31.8828C139.171 31.6798 139.254 31.4581 139.305 31.2177C139.356 30.9773 139.38 30.7556 139.38 30.5526V11.0595C139.38 10.6294 139.316 10.2208 139.19 9.84147C139.062 9.45951 138.683 9.25651 138.047 9.23247V8.85051L141.893 7.66992V30.5526C141.893 30.7556 141.917 30.9773 141.968 31.2177C142.019 31.4581 142.101 31.6825 142.216 31.8828C142.331 32.0858 142.457 32.2647 142.598 32.417C142.737 32.5692 142.908 32.644 143.111 32.644V33.026H138.124H138.122Z" fill="#4A4F54"></path><path d="M150.762 25.3336C150.863 26.223 151.08 27.0671 151.408 27.8657C151.737 28.6643 152.175 29.3695 152.722 29.9785C153.267 30.5875 153.935 31.0763 154.72 31.4449C155.506 31.8135 156.422 31.9978 157.461 31.9978C158.019 31.9978 158.609 31.915 159.232 31.7494C159.854 31.5838 160.431 31.3487 160.965 31.0442C161.499 30.7397 161.975 30.3658 162.394 29.9197C162.814 29.4763 163.099 28.9742 163.252 28.4159H163.593V31.2713C163.441 31.2713 163.27 31.322 163.081 31.4235C162.891 31.525 162.667 31.6532 162.416 31.8055C161.908 32.11 161.222 32.4332 160.359 32.7751C159.496 33.117 158.353 33.2879 156.932 33.2879C155.789 33.2879 154.704 33.1223 153.676 32.7937C152.648 32.4652 151.739 31.9551 150.954 31.2713C150.166 30.5848 149.539 29.7114 149.068 28.6456C148.598 27.5799 148.363 26.3112 148.363 24.8394C148.363 23.9019 148.521 22.9483 148.839 21.9841C149.157 21.0199 149.637 20.1518 150.286 19.3772C150.933 18.6026 151.763 17.9749 152.781 17.4914C153.796 17.0106 155.014 16.7676 156.435 16.7676C157.704 16.7676 158.815 16.9839 159.766 17.414C160.717 17.8467 161.505 18.4423 162.127 19.2036C162.749 19.9648 163.212 20.8649 163.516 21.9066C163.821 22.9483 163.973 24.0889 163.973 25.3336H150.762ZM156.283 18.023C155.393 18.023 154.627 18.2019 153.98 18.5572C153.334 18.9124 152.781 19.3692 152.324 19.9274C151.868 20.4857 151.512 21.1214 151.259 21.8319C151.005 22.5423 150.839 23.2528 150.765 23.9633H161.614C161.588 23.2261 161.457 22.5049 161.214 21.7945C160.973 21.084 160.637 20.4483 160.204 19.89C159.771 19.3318 159.226 18.8804 158.567 18.5385C157.907 18.1966 157.146 18.0256 156.283 18.0256V18.023Z" fill="#4A4F54"></path><path d="M184.344 30.5493C184.344 30.7523 184.368 30.974 184.421 31.2144C184.472 31.4548 184.555 31.6791 184.669 31.8794C184.784 32.0824 184.91 32.2614 185.051 32.4136C185.19 32.5659 185.361 32.6407 185.564 32.6407V33.0227H180.652V32.6407C180.829 32.6407 180.994 32.5659 181.146 32.4136C181.299 32.2614 181.432 32.0851 181.547 31.8794C181.662 31.6764 181.745 31.4548 181.795 31.2144C181.846 30.974 181.87 30.7523 181.87 30.5493V23.4684C181.87 22.5549 181.742 21.7563 181.488 21.0698C181.235 20.3833 180.893 19.8144 180.46 19.3577C180.027 18.9009 179.538 18.5644 178.994 18.348C178.449 18.1317 177.896 18.0248 177.338 18.0248C176.779 18.0248 176.226 18.1397 175.681 18.3667C175.137 18.5964 174.653 18.8929 174.234 19.2615C173.814 19.6301 173.473 20.0601 173.205 20.557C172.938 21.0511 172.805 21.5666 172.805 22.0981V30.5493C172.805 30.7523 172.829 30.974 172.882 31.2144C172.933 31.4548 173.016 31.6791 173.131 31.8794C173.245 32.0824 173.371 32.2614 173.513 32.4136C173.651 32.5659 173.822 32.6407 174.025 32.6407V33.0227H169.076V32.6407C169.252 32.6407 169.418 32.5659 169.57 32.4136C169.722 32.2614 169.856 32.0851 169.971 31.8794C170.086 31.6764 170.166 31.4548 170.219 31.2144C170.27 30.974 170.297 30.7523 170.297 30.5493V20.0414C170.297 19.6114 170.233 19.1974 170.107 18.8048C169.979 18.4121 169.613 18.2011 169.004 18.1771V17.8352L172.81 16.6172V18.7113C172.986 18.5083 173.216 18.2866 173.497 18.0462C173.774 17.8058 174.111 17.5761 174.506 17.3597C174.899 17.1434 175.356 16.9671 175.876 16.8255C176.397 16.6866 177.012 16.6172 177.722 16.6172C178.916 16.6172 179.931 16.8202 180.767 17.2262C181.606 17.6322 182.29 18.1584 182.824 18.8074C183.358 19.4538 183.743 20.1643 183.986 20.9389C184.226 21.7135 184.346 22.4694 184.346 23.204V30.552L184.344 30.5493Z" fill="#4A4F54"></path><path d="M205.244 31.6539C205.041 31.6539 204.852 31.6993 204.673 31.7875C204.494 31.8756 204.291 31.9851 204.064 32.1107C203.631 32.3644 203.086 32.6235 202.426 32.8906C201.767 33.1577 200.904 33.2913 199.838 33.2913C198.543 33.2913 197.343 33.0829 196.24 32.6636C195.137 32.2442 194.184 31.6619 193.385 30.9114C192.586 30.1635 191.964 29.2874 191.521 28.2831C191.077 27.2815 190.855 26.1944 190.855 25.0271C190.855 23.9373 191.05 22.8956 191.446 21.9047C191.838 20.9137 192.405 20.0403 193.139 19.2791C193.874 18.5178 194.782 17.9088 195.861 17.4521C196.94 16.9953 198.163 16.7656 199.536 16.7656C200.474 16.7656 201.238 16.8751 201.82 17.0888C202.402 17.3052 202.899 17.5135 203.305 17.7165C203.535 17.8447 203.757 17.9435 203.973 18.021C204.189 18.0958 204.411 18.1359 204.638 18.1359V21.0286H204.256C204.128 20.5478 203.901 20.1204 203.57 19.7545C203.238 19.3859 202.859 19.0761 202.426 18.8223C201.994 18.5686 201.526 18.3789 201.019 18.2507C200.511 18.1252 200.014 18.0611 199.534 18.0611C198.492 18.0611 197.578 18.2454 196.793 18.614C196.005 18.9826 195.359 19.4634 194.851 20.0617C194.344 20.6573 193.962 21.3384 193.708 22.0997C193.454 22.8609 193.326 23.6489 193.326 24.4609C193.326 25.4011 193.478 26.3199 193.783 27.22C194.087 28.1202 194.525 28.9268 195.097 29.6373C195.669 30.3478 196.36 30.9194 197.172 31.3494C197.984 31.7821 198.898 31.9958 199.913 31.9958C200.623 31.9958 201.278 31.8943 201.873 31.6913C202.469 31.4883 202.977 31.2212 203.396 30.8927C203.815 30.5641 204.152 30.2009 204.406 29.8082C204.659 29.4156 204.812 29.0417 204.862 28.6837H205.244V31.6539Z" fill="#4A4F54"></path><path d="M211.792 25.3336C211.893 26.223 212.11 27.0671 212.438 27.8657C212.767 28.6643 213.205 29.3695 213.752 29.9785C214.297 30.5875 214.965 31.0763 215.75 31.4449C216.538 31.8135 217.452 31.9978 218.491 31.9978C219.049 31.9978 219.639 31.915 220.262 31.7494C220.884 31.5838 221.461 31.3487 221.995 31.0442C222.529 30.7397 223.005 30.3658 223.424 29.9197C223.844 29.4763 224.129 28.9742 224.282 28.4159H224.624V31.2713C224.471 31.2713 224.3 31.322 224.108 31.4235C223.918 31.525 223.697 31.6532 223.443 31.8055C222.935 32.11 222.249 32.4332 221.386 32.7751C220.523 33.117 219.38 33.2879 217.959 33.2879C216.816 33.2879 215.732 33.1223 214.703 32.7937C213.675 32.4652 212.767 31.9551 211.982 31.2713C211.194 30.5848 210.566 29.7114 210.096 28.6456C209.626 27.5799 209.391 26.3112 209.391 24.8394C209.391 23.9019 209.548 22.9483 209.866 21.9841C210.184 21.0199 210.665 20.1518 211.314 19.3772C211.96 18.6026 212.791 17.9749 213.809 17.4914C214.824 17.0106 216.041 16.7676 217.462 16.7676C218.731 16.7676 219.842 16.9839 220.793 17.414C221.744 17.8467 222.532 18.4423 223.154 19.2036C223.777 19.9648 224.239 20.8649 224.543 21.9066C224.848 22.9483 225 24.0889 225 25.3336H211.789H211.792ZM217.313 18.023C216.423 18.023 215.657 18.2019 215.01 18.5572C214.364 18.9124 213.811 19.3692 213.354 19.9274C212.898 20.4857 212.542 21.1214 212.289 21.8319C212.035 22.5423 211.869 23.2528 211.795 23.9633H222.644C222.618 23.2261 222.487 22.5049 222.244 21.7945C222.003 21.084 221.667 20.4483 221.234 19.89C220.801 19.3318 220.256 18.8804 219.597 18.5385C218.937 18.1966 218.176 18.0256 217.313 18.0256V18.023Z" fill="#4A4F54"></path><path d="M34.4768 11.9297C35.8203 14.4405 36.5869 17.3038 36.5869 20.3461C36.5869 30.2049 28.5658 38.226 18.707 38.226V40.6913C29.0386 40.6913 37.4122 32.3176 37.4122 21.9861C37.4122 18.2841 36.3331 14.8358 34.4768 11.9297Z" fill="#87D1E6"></path><path d="M18.7052 2.46535V0C8.37367 0 0 8.37366 0 18.7052C0 22.4072 1.0791 25.8555 2.93546 28.7616C1.59193 26.2509 0.825349 23.3875 0.825349 20.3479C0.825349 10.4891 8.84644 2.46803 18.7052 2.46803V2.46535Z" fill="#87D1E6"></path><path d="M18.491 22.8513C19.2068 22.3384 19.9307 21.7481 20.764 21.262C23.2347 19.8116 26.1942 19.7769 28.9374 20.1295C29.7307 20.2203 30.548 20.3004 31.352 20.3352C28.0853 20.0173 25.1525 18.5856 22.9356 16.4221C22.3426 16.4168 21.7523 16.5022 21.1914 16.6759C20.3954 16.9269 19.7143 17.3543 19.0279 17.8511C18.312 18.364 17.5882 18.9542 16.7548 19.4404C14.2841 20.8907 11.3246 20.9255 8.58148 20.5729C7.75079 20.4767 6.89339 20.3939 6.05469 20.3646C9.36142 20.661 12.3316 22.098 14.5726 24.2803C15.1682 24.2856 15.7665 24.2028 16.3301 24.0265C17.1261 23.7755 17.8072 23.3481 18.4937 22.8513H18.491Z" fill="#87D1E6"></path><path d="M31.544 20.3496C29.7704 20.4912 27.9674 20.3069 26.2339 20.4938C24.5085 20.6755 22.767 21.1723 21.3727 22.1953C20.6862 22.6948 20.0585 23.3198 19.3641 23.9368C19.0168 24.2466 18.6482 24.5538 18.2449 24.8396C17.5638 25.3284 16.8025 25.6863 16.0039 25.9107C17.5424 27.962 18.5334 30.4514 18.7551 33.1625C19.3187 26.3327 24.7382 20.9132 31.5653 20.3523C31.5653 20.3523 31.5493 20.3523 31.5413 20.3523L31.544 20.3496Z" fill="#87D1E6"></path><path d="M11.2854 20.2063C13.0109 20.0247 14.7524 19.5279 16.1466 18.5049C16.8331 18.0054 17.4608 17.3804 18.1552 16.7634C18.5025 16.4535 18.8711 16.1464 19.2744 15.8606C19.9528 15.3744 20.7114 15.0165 21.5074 14.7921C19.9689 12.7408 18.9806 10.2541 18.7589 7.54297C18.198 14.3461 12.8159 19.7496 6.02344 20.3479C7.78365 20.2143 9.56789 20.3906 11.288 20.209L11.2854 20.2063Z" fill="#87D1E6"></path><path d="M107.697 43.389C107.444 43.4905 107.155 43.5386 106.832 43.5386C106.474 43.5386 106.148 43.4772 105.86 43.3543C105.571 43.2314 105.326 43.0605 105.123 42.8414C104.92 42.6224 104.765 42.366 104.655 42.0695C104.546 41.773 104.492 41.4498 104.492 41.1026C104.492 40.7554 104.554 40.4429 104.674 40.1437C104.794 39.8446 104.962 39.5855 105.173 39.3611C105.384 39.1367 105.63 38.9631 105.908 38.8402C106.186 38.7174 106.479 38.6559 106.792 38.6559C107.105 38.6559 107.377 38.7094 107.628 38.8162C107.879 38.9231 108.093 39.0352 108.269 39.1528L108.614 38.3568C108.389 38.2152 108.122 38.0924 107.81 37.9909C107.497 37.8894 107.15 37.8359 106.768 37.8359C106.309 37.8359 105.887 37.9187 105.499 38.0843C105.112 38.2499 104.781 38.4797 104.498 38.7788C104.214 39.078 103.995 39.4279 103.841 39.8312C103.686 40.2345 103.605 40.6752 103.605 41.1507C103.605 41.5861 103.68 41.9974 103.83 42.382C103.979 42.7667 104.193 43.1086 104.471 43.4024C104.749 43.6962 105.085 43.9286 105.483 44.0995C105.881 44.2704 106.327 44.3586 106.821 44.3639C107.11 44.3639 107.377 44.3345 107.62 44.2758C107.863 44.217 108.077 44.1422 108.261 44.0541C108.445 43.966 108.587 43.8858 108.694 43.8164L108.331 43.0578C108.165 43.1807 107.957 43.2928 107.703 43.3943L107.697 43.389Z" fill="#87D1E6"></path><path d="M113.775 37.9023H112.918V44.2888H117.018V43.4688H113.775V37.9023Z" fill="#87D1E6"></path><path d="M122.061 41.4895H125.001V40.6669H122.061V38.725H125.357V37.9023H121.203V44.2888H125.479V43.4688H122.061V41.4895Z" fill="#87D1E6"></path><path d="M131.912 37.6387L129.121 44.2895H129.96L130.646 42.6121H133.109L133.769 44.2895H134.749L131.966 37.6387H131.912ZM130.948 41.8696L131.902 39.5378L132.818 41.8696H130.951H130.948Z" fill="#87D1E6"></path><path d="M143.463 42.5268L138.784 37.7109H138.738V44.2897H139.596L139.58 39.7356L144.267 44.4953H144.294V37.9032H143.447L143.463 42.5268Z" fill="#87D1E6"></path><path d="M149.783 41.4895H152.727V40.6669H149.783V38.725H153.079V37.9023H148.926V44.2888H153.202V43.4688H149.783V41.4895Z" fill="#87D1E6"></path><path d="M160.96 41.2824C161.131 41.0848 161.253 40.8657 161.326 40.6254C161.4 40.385 161.435 40.1366 161.435 39.8828C161.435 39.5596 161.376 39.2738 161.264 39.0308C161.149 38.7877 160.989 38.5794 160.786 38.4138C160.583 38.2455 160.345 38.1199 160.07 38.0345C159.795 37.949 159.499 37.9062 159.173 37.9062H157.477V44.2927H158.334V41.9422H159.28C159.352 41.9422 159.421 41.9368 159.488 41.9342L160.992 44.2927H161.98L160.377 41.7178C160.61 41.603 160.802 41.4614 160.954 41.2851L160.96 41.2824ZM159.263 41.1195H158.337V38.7263H159.325C159.549 38.7263 159.739 38.7637 159.894 38.8411C160.049 38.9186 160.177 39.0147 160.273 39.1323C160.369 39.2498 160.441 39.378 160.484 39.5169C160.53 39.6558 160.551 39.7893 160.551 39.9175C160.551 40.0458 160.53 40.174 160.489 40.3155C160.449 40.4571 160.38 40.588 160.286 40.7082C160.193 40.8284 160.062 40.9272 159.894 41.0046C159.726 41.0821 159.515 41.1195 159.261 41.1195H159.263Z" fill="#87D1E6"></path><path d="M169.655 41.7822C169.564 41.5765 169.439 41.4029 169.284 41.2613C169.129 41.1198 168.952 41.0023 168.757 40.9088C168.562 40.8153 168.365 40.7298 168.165 40.6524C167.935 40.5642 167.713 40.4707 167.502 40.3692C167.291 40.2704 167.12 40.1502 166.989 40.0113C166.858 39.8724 166.794 39.7041 166.794 39.5038C166.794 39.2394 166.896 39.0257 167.099 38.8681C167.302 38.7078 167.574 38.6304 167.916 38.6304C168.165 38.6304 168.416 38.6704 168.675 38.7533C168.934 38.8361 169.171 38.9322 169.391 39.0444L169.716 38.382C169.476 38.2404 169.196 38.1202 168.88 38.0187C168.565 37.9199 168.202 37.8691 167.791 37.8691C167.425 37.8798 167.101 37.96 166.818 38.1042C166.535 38.2484 166.313 38.4461 166.151 38.6972C165.988 38.9482 165.907 39.2394 165.907 39.5759C165.907 39.8537 165.961 40.0888 166.068 40.2838C166.175 40.4787 166.316 40.6417 166.492 40.7752C166.669 40.9088 166.861 41.021 167.067 41.1118C167.272 41.2026 167.475 41.2881 167.676 41.3628C167.887 41.4457 168.087 41.5391 168.277 41.6406C168.466 41.7448 168.616 41.8677 168.731 42.0119C168.846 42.1561 168.902 42.3378 168.902 42.5541C168.902 42.8079 168.838 43.0109 168.707 43.1631C168.576 43.3154 168.413 43.4302 168.215 43.5023C168.018 43.5771 167.82 43.6119 167.62 43.6119C167.43 43.6119 167.238 43.5851 167.037 43.529C166.837 43.473 166.645 43.4009 166.463 43.3074C166.281 43.2166 166.119 43.1204 165.977 43.0189L165.598 43.6893C165.769 43.8015 165.964 43.9083 166.18 44.0125C166.399 44.1167 166.634 44.1995 166.89 44.2636C167.147 44.3277 167.417 44.3598 167.7 44.3598C168.13 44.3598 168.501 44.2796 168.814 44.122C169.126 43.9618 169.366 43.7454 169.535 43.4676C169.703 43.1898 169.786 42.8853 169.786 42.5488C169.786 42.2416 169.74 41.9852 169.65 41.7795L169.655 41.7822Z" fill="#87D1E6"></path></svg>