<svg width="48" height="49" viewBox="0 0 48 49" fill="none" xmlns="http://www.w3.org/2000/svg">
<g clip-path="url(#clip0_887517_1663)">
<path d="M37.7143 0.0732422H10.2857C4.60507 0.0732422 0 4.67831 0 10.359V37.7875C0 43.4682 4.60507 48.0732 10.2857 48.0732H37.7143C43.3949 48.0732 48 43.4682 48 37.7875V10.359C48 4.67831 43.3949 0.0732422 37.7143 0.0732422Z" fill="url(#paint0_radial_887517_1663)"/>
<path d="M37.7143 0.0732422H10.2857C4.60507 0.0732422 0 4.67831 0 10.359V37.7875C0 43.4682 4.60507 48.0732 10.2857 48.0732H37.7143C43.3949 48.0732 48 43.4682 48 37.7875V10.359C48 4.67831 43.3949 0.0732422 37.7143 0.0732422Z" fill="url(#paint1_radial_887517_1663)"/>
<path d="M37.7143 0.0732422H10.2857C4.60507 0.0732422 0 4.67831 0 10.359V37.7875C0 43.4682 4.60507 48.0732 10.2857 48.0732H37.7143C43.3949 48.0732 48 43.4682 48 37.7875V10.359C48 4.67831 43.3949 0.0732422 37.7143 0.0732422Z" fill="url(#paint2_radial_887517_1663)"/>
<path d="M36.0022 14.6447C36.0022 16.0648 34.8509 17.2161 33.4308 17.2161C32.0107 17.2161 30.8594 16.0648 30.8594 14.6447C30.8594 13.2245 32.0107 12.0732 33.4308 12.0732C34.8509 12.0732 36.0022 13.2245 36.0022 14.6447Z" fill="white"/>
<path fill-rule="evenodd" clip-rule="evenodd" d="M24.0011 32.6448C28.7349 32.6448 32.5725 28.8072 32.5725 24.0734C32.5725 19.3396 28.7349 15.502 24.0011 15.502C19.2673 15.502 15.4297 19.3396 15.4297 24.0734C15.4297 28.8072 19.2673 32.6448 24.0011 32.6448ZM24.0011 29.2162C26.8415 29.2162 29.144 26.9138 29.144 24.0734C29.144 21.233 26.8415 18.9305 24.0011 18.9305C21.1607 18.9305 18.8583 21.233 18.8583 24.0734C18.8583 26.9138 21.1607 29.2162 24.0011 29.2162Z" fill="white"/>
<path fill-rule="evenodd" clip-rule="evenodd" d="M6.85938 23.3876C6.85938 17.627 6.85938 14.7467 7.98045 12.5465C8.96658 10.6111 10.5401 9.03762 12.4755 8.05149C14.6757 6.93042 17.556 6.93042 23.3165 6.93042H24.6879C30.4485 6.93042 33.3288 6.93042 35.5289 8.05149C37.4643 9.03762 39.0379 10.6111 40.0239 12.5465C41.1451 14.7467 41.1451 17.627 41.1451 23.3876V24.759C41.1451 30.5195 41.1451 33.3998 40.0239 35.6C39.0379 37.5354 37.4643 39.1089 35.5289 40.095C33.3288 41.2161 30.4485 41.2161 24.6879 41.2161H23.3165C17.556 41.2161 14.6757 41.2161 12.4755 40.095C10.5401 39.1089 8.96658 37.5354 7.98045 35.6C6.85938 33.3998 6.85938 30.5195 6.85938 24.759V23.3876ZM23.3165 10.359H24.6879C27.6249 10.359 29.6211 10.3617 31.1643 10.4877C32.6676 10.6105 33.4363 10.8331 33.9725 11.1064C35.2627 11.7638 36.3117 12.8128 36.9691 14.103C37.2423 14.6392 37.465 15.4079 37.5878 16.9112C37.7138 18.4544 37.7165 20.4506 37.7165 23.3876V24.759C37.7165 27.6959 37.7138 29.6922 37.5878 31.2354C37.465 32.7386 37.2423 33.5073 36.9691 34.0436C36.3117 35.3337 35.2627 36.3827 33.9725 37.0401C33.4363 37.3134 32.6676 37.5361 31.1643 37.6588C29.6211 37.7848 27.6249 37.7876 24.6879 37.7876H23.3165C20.3796 37.7876 18.3833 37.7848 16.8401 37.6588C15.3369 37.5361 14.5682 37.3134 14.0319 37.0401C12.7418 36.3827 11.6928 35.3337 11.0353 34.0436C10.7621 33.5073 10.5395 32.7386 10.4167 31.2354C10.2906 29.6922 10.2879 27.6959 10.2879 24.759V23.3876C10.2879 20.4506 10.2906 18.4544 10.4167 16.9112C10.5395 15.4079 10.7621 14.6392 11.0353 14.103C11.6928 12.8128 12.7418 11.7638 14.0319 11.1064C14.5682 10.8331 15.3369 10.6105 16.8401 10.4877C18.3833 10.3617 20.3796 10.359 23.3165 10.359Z" fill="white"/>
</g>
<defs>
<radialGradient id="paint0_radial_887517_1663" cx="0" cy="0" r="1" gradientUnits="userSpaceOnUse" gradientTransform="translate(17.1429 36.0732) rotate(-55.3758) scale(43.7479)">
<stop stop-color="#B13589"/>
<stop offset="0.79309" stop-color="#C62F94"/>
<stop offset="1" stop-color="#8A3AC8"/>
</radialGradient>
<radialGradient id="paint1_radial_887517_1663" cx="0" cy="0" r="1" gradientUnits="userSpaceOnUse" gradientTransform="translate(15.4286 49.7875) rotate(-65.1363) scale(38.7329)">
<stop stop-color="#E0E8B7"/>
<stop offset="0.444662" stop-color="#FB8A2E"/>
<stop offset="0.71474" stop-color="#E2425C"/>
<stop offset="1" stop-color="#E2425C" stop-opacity="0"/>
</radialGradient>
<radialGradient id="paint2_radial_887517_1663" cx="0" cy="0" r="1" gradientUnits="userSpaceOnUse" gradientTransform="translate(-2.57143 1.78753) rotate(-8.1301) scale(66.6701 14.26)">
<stop offset="0.156701" stop-color="#406ADC"/>
<stop offset="0.467799" stop-color="#6A45BE"/>
<stop offset="1" stop-color="#6A45BE" stop-opacity="0"/>
</radialGradient>
<clipPath id="clip0_887517_1663">
<rect width="48" height="48" fill="white" transform="translate(0 0.0732422)"/>
</clipPath>
</defs>
</svg>
