<svg width="48" height="49" viewBox="0 0 48 49" fill="none" xmlns="http://www.w3.org/2000/svg">
<g clip-path="url(#clip0_887517_1674)">
<path d="M40.8 0.0732422H7.2C3.22355 0.0732422 0 3.29679 0 7.27324V40.8732C0 44.8497 3.22355 48.0732 7.2 48.0732H40.8C44.7765 48.0732 48 44.8497 48 40.8732V7.27324C48 3.29679 44.7765 0.0732422 40.8 0.0732422Z" fill="#008080"/>
<path d="M36.8475 12.0732H11.1525C9.03173 12.0732 7.3125 13.7925 7.3125 15.9132V32.2332C7.3125 34.354 9.03173 36.0732 11.1525 36.0732H36.8475C38.9683 36.0732 40.6875 34.354 40.6875 32.2332V15.9132C40.6875 13.7925 38.9683 12.0732 36.8475 12.0732Z" fill="white"/>
<path d="M40.6875 12.0732L25.2188 27.4482C24.5625 28.1982 23.4375 28.1982 22.7812 27.4482L7.3125 12.0732M7.3125 36.0732L19.4062 24.0732M40.6875 36.0732L28.5938 24.0732" stroke="#008080" stroke-width="1.875"/>
</g>
<defs>
<clipPath id="clip0_887517_1674">
<rect width="48" height="48" fill="white" transform="translate(0 0.0732422)"/>
</clipPath>
</defs>
</svg>
