<svg width="48" height="49" viewBox="0 0 48 49" fill="none" xmlns="http://www.w3.org/2000/svg">
<g clip-path="url(#clip0_887517_1670)">
<path d="M40.8 0.0732422H7.2C3.22355 0.0732422 0 3.29679 0 7.27324V40.8732C0 44.8497 3.22355 48.0732 7.2 48.0732H40.8C44.7765 48.0732 48 44.8497 48 40.8732V7.27324C48 3.29679 44.7765 0.0732422 40.8 0.0732422Z" fill="#25D366"/>
<path d="M11.5305 36.917L12.843 30.8232C11.1561 28.1625 10.498 24.9776 10.9923 21.8661C11.4865 18.7546 13.0991 15.9304 15.5276 13.9234C17.956 11.9163 21.0333 10.8644 24.1822 10.9648C27.3311 11.0653 30.3351 12.3113 32.6306 14.4691C34.9261 16.6269 36.3554 19.5482 36.6503 22.6848C36.9451 25.8215 36.0854 28.9579 34.2322 31.5058C32.3791 34.0536 29.6599 35.8376 26.5849 36.5232C23.51 37.2088 20.2905 36.7488 17.5305 35.2295L11.5305 36.917Z" fill="#25D366" stroke="white" stroke-width="2.4375"/>
<path d="M28.876 25.6671C28.5948 25.4796 28.3135 25.3858 28.0323 25.7608L26.9073 27.2608C26.626 27.4483 26.4385 27.5421 26.0635 27.3546C24.6573 26.6046 22.6885 25.7608 21.001 22.9483C20.9073 22.5733 21.0948 22.3858 21.2823 22.1983L22.126 20.8858C22.3135 20.6983 22.2198 20.5108 22.126 20.3233L21.001 17.6046C20.7198 16.8546 20.4385 16.9483 20.1573 16.9483H19.4073C19.2198 16.9483 18.8448 17.0421 18.4698 17.4171C16.4073 19.4796 17.251 22.3858 18.751 24.2608C19.0323 24.6358 20.9073 28.0108 24.9385 29.7921C27.9385 31.1046 28.5948 30.9171 29.4385 30.7296C30.4698 30.6358 31.501 29.7921 31.9698 28.9483C32.0635 28.6671 32.5323 27.4483 32.1573 27.2608" fill="white"/>
</g>
<defs>
<clipPath id="clip0_887517_1670">
<rect width="48" height="48" fill="white" transform="translate(0 0.0732422)"/>
</clipPath>
</defs>
</svg>
