<svg width="25" height="24" viewBox="0 0 25 24" fill="none" xmlns="http://www.w3.org/2000/svg">
<path d="M0.334323 5.9917C0.334323 6.99639 0.702779 8.10068 1.17085 9.27246C1.63892 10.4442 2.24194 11.5485 2.71108 12.3851C3.98354 14.5947 5.62338 16.7701 7.4978 18.5771C9.37221 20.384 11.5819 21.891 14.0582 22.795C15.4978 23.3638 16.9373 24 18.544 24C19.3473 24 20.4859 23.699 21.5227 23.2631C22.5274 22.8282 23.4303 22.1588 23.7656 21.3555C23.8995 21.0545 24.0665 20.6528 24.1672 20.1837C24.2679 19.7488 24.3343 19.3129 24.3343 19.0119C24.3343 18.8448 24.3343 18.6767 24.3011 18.6435C24.2004 18.4421 23.9659 18.275 23.6981 18.1079C23.0951 17.8069 22.9955 17.7063 22.0915 17.1707C21.1542 16.6352 20.1838 16.0321 19.3462 15.5973C18.9446 15.3627 18.6768 15.262 18.5761 15.262C18.0406 15.262 17.3711 15.9989 16.8024 16.8022C16.1994 17.6056 15.5299 18.3425 15.0619 18.3425C14.8273 18.3425 14.5927 18.2418 14.325 18.0747C14.0572 17.9076 13.7894 17.7737 13.6223 17.673C10.6768 15.9989 8.70171 14.0249 7.02866 11.1126C6.82729 10.7773 6.35923 10.0747 6.35923 9.70625C6.35923 9.27139 6.96225 8.76905 7.56421 8.2335C8.13296 7.73116 8.73598 7.1292 8.73598 6.39229C8.73598 6.2916 8.6685 5.99063 8.53462 5.55576C8.23364 4.68496 7.83198 3.68135 7.49673 2.71094C7.32964 2.2418 7.19575 1.90762 7.16147 1.74053C7.094 1.63984 7.06079 1.50596 7.02759 1.33887C6.99438 1.17178 6.92691 1.03789 6.8937 0.904003C6.79302 0.603026 6.62593 0.368456 6.45884 0.234569C6.29175 0.16709 5.89009 0.0674786 5.48843 0.0332035C5.08677 0.0332035 4.61763 0 4.41733 0C4.31665 0 4.18276 -3.62624e-07 4.04888 0.0332035H3.61401C2.54292 0.502343 1.7728 1.43955 1.20405 2.54385C0.668504 3.64815 0.333252 4.8874 0.333252 5.9917H0.334323Z" fill="#5DB7D1"/>
</svg>
