<svg width="81" height="82" viewBox="0 0 81 82" fill="none" xmlns="http://www.w3.org/2000/svg">
<path d="M40.5598 0.833252C18.2842 0.833252 0.230469 18.8869 0.230469 41.1626C0.230469 63.4383 18.2842 81.492 40.5598 81.492C62.8355 81.492 80.8892 63.4383 80.8892 41.1626C80.8892 18.8869 62.8355 0.833252 40.5598 0.833252ZM29.2802 58.0348H21.4191V32.8762H29.2802V58.0348ZM25.137 29.7255H25.074C22.2226 29.7255 20.3794 27.8035 20.3794 25.3617C20.3794 22.8726 22.2856 20.9979 25.1843 20.9979C28.0829 20.9979 29.8631 22.8726 29.9261 25.3617C29.9419 27.7878 28.0987 29.7255 25.137 29.7255ZM60.7245 58.0348H51.8079V45.0223C51.8079 41.6195 50.4216 39.2879 47.3497 39.2879C45.0024 39.2879 43.6948 40.8633 43.0962 42.3756C42.8756 42.9113 42.9071 43.6674 42.9071 44.4394V58.0348H34.0693C34.0693 58.0348 34.1796 34.9714 34.0693 32.8762H42.9071V36.8304C43.427 35.0975 46.2469 32.6399 50.7524 32.6399C56.345 32.6399 60.7245 36.2632 60.7245 44.0455V58.0348Z" fill="#5DB7D1"/>
</svg>
