<svg width="68" height="68" viewBox="0 0 68 68" fill="none" xmlns="http://www.w3.org/2000/svg">
<path d="M33.8588 0.617676C42.99 0.617676 44.1293 0.651283 47.7119 0.819322C51.2911 0.987361 53.7277 1.54861 55.8719 2.38209C58.09 3.23572 59.9586 4.39183 61.8272 6.25706C63.5361 7.9371 64.8584 9.96934 65.7022 12.2124C66.5323 14.3532 67.0969 16.7931 67.2649 20.3723C67.4229 23.9549 67.4666 25.0942 67.4666 34.2255C67.4666 43.3567 67.433 44.496 67.2649 48.0786C67.0969 51.6578 66.5323 54.0944 65.7022 56.2386C64.8609 58.4828 63.5382 60.5156 61.8272 62.1939C60.1467 63.9022 58.1146 65.2245 55.8719 66.0689C53.7311 66.899 51.2911 67.4636 47.7119 67.6316C44.1293 67.7896 42.99 67.8333 33.8588 67.8333C24.7275 67.8333 23.5882 67.7997 20.0056 67.6316C16.4264 67.4636 13.9898 66.899 11.8457 66.0689C9.60176 65.2269 7.56917 63.9043 5.89036 62.1939C4.18109 60.5141 2.85871 58.4818 2.01539 56.2386C1.18191 54.0978 0.620662 51.6578 0.452623 48.0786C0.294667 44.496 0.250977 43.3567 0.250977 34.2255C0.250977 25.0942 0.284584 23.9549 0.452623 20.3723C0.620662 16.7897 1.18191 14.3565 2.01539 12.2124C2.85637 9.96797 4.17907 7.93517 5.89036 6.25706C7.56965 4.5472 9.6021 3.22473 11.8457 2.38209C13.9898 1.54861 16.423 0.987361 20.0056 0.819322C23.5882 0.661366 24.7275 0.617676 33.8588 0.617676ZM33.8588 17.4216C29.4021 17.4216 25.128 19.192 21.9766 22.3433C18.8253 25.4947 17.0549 29.7688 17.0549 34.2255C17.0549 38.6821 18.8253 42.9563 21.9766 46.1076C25.128 49.259 29.4021 51.0294 33.8588 51.0294C38.3154 51.0294 42.5896 49.259 45.7409 46.1076C48.8923 42.9563 50.6627 38.6821 50.6627 34.2255C50.6627 29.7688 48.8923 25.4947 45.7409 22.3433C42.5896 19.192 38.3154 17.4216 33.8588 17.4216ZM55.7038 16.5814C55.7038 15.4672 55.2612 14.3987 54.4734 13.6108C53.6856 12.823 52.617 12.3804 51.5029 12.3804C50.3887 12.3804 49.3202 12.823 48.5323 13.6108C47.7445 14.3987 47.3019 15.4672 47.3019 16.5814C47.3019 17.6955 47.7445 18.7641 48.5323 19.5519C49.3202 20.3398 50.3887 20.7824 51.5029 20.7824C52.617 20.7824 53.6856 20.3398 54.4734 19.5519C55.2612 18.7641 55.7038 17.6955 55.7038 16.5814ZM33.8588 24.1431C36.5328 24.1431 39.0973 25.2054 40.9881 27.0962C42.8789 28.987 43.9411 31.5515 43.9411 34.2255C43.9411 36.8995 42.8789 39.464 40.9881 41.3548C39.0973 43.2456 36.5328 44.3078 33.8588 44.3078C31.1848 44.3078 28.6203 43.2456 26.7295 41.3548C24.8387 39.464 23.7764 36.8995 23.7764 34.2255C23.7764 31.5515 24.8387 28.987 26.7295 27.0962C28.6203 25.2054 31.1848 24.1431 33.8588 24.1431Z" fill="#5DB7D1"/>
</svg>
