<svg width="21" height="20" viewBox="0 0 21 20" fill="none" xmlns="http://www.w3.org/2000/svg">
<path d="M16.6393 4.68468C16.6393 5.22522 16.1889 5.63063 15.6934 5.63063C15.1528 5.63063 14.7474 5.18018 14.7474 4.68468C14.7474 4.14414 15.1979 3.73874 15.6934 3.73874C16.1889 3.69369 16.6393 4.14414 16.6393 4.68468ZM20.333 5.09009V14.9099C20.333 17.7027 18.0357 20 15.2429 20H5.4231C2.63031 20 0.333008 17.7027 0.333008 14.9099V5.09009C0.333008 2.2973 2.63031 0 5.4231 0H15.2429C18.0808 0 20.333 2.2973 20.333 5.09009ZM18.4411 5.09009C18.4411 3.33333 16.9997 1.89189 15.2429 1.89189H5.4231C3.66634 1.89189 2.2249 3.33333 2.2249 5.09009V14.9099C2.2249 16.6667 3.66634 18.1081 5.4231 18.1081H15.2429C17.0447 18.1081 18.4862 16.6667 18.4862 14.9099L18.4411 5.09009ZM15.5582 10C15.5582 7.11712 13.2159 4.77477 10.333 4.77477C7.45012 4.77477 5.10778 7.11712 5.10778 10C5.10778 12.8829 7.45012 15.2252 10.333 15.2252C13.2159 15.2252 15.5582 12.8829 15.5582 10ZM13.6663 10C13.6663 11.8468 12.1799 13.3333 10.333 13.3333C8.48616 13.3333 6.99967 11.8468 6.99967 10C6.99967 8.15315 8.48616 6.66667 10.333 6.66667C12.1799 6.66667 13.6663 8.15315 13.6663 10Z" fill="#E7E3E7"/>
</svg>
