<svg width="50" height="49" viewBox="0 0 50 49" fill="none" xmlns="http://www.w3.org/2000/svg">
<path fill-rule="evenodd" clip-rule="evenodd" d="M22.6503 0.0308207C22.4922 0.0523868 21.9746 0.117373 21.5001 0.17517C17.3198 0.685089 13.0337 2.48524 9.48205 5.22279C8.27042 6.15665 5.99994 8.47908 5.05371 9.75234C3.88982 11.3186 3.42226 12.0833 2.56278 13.8259C0.130028 18.7585 -0.527882 24.311 0.662279 29.8637C1.3545 33.0932 3.11324 36.782 5.32641 39.6463C6.19681 40.7728 8.55394 43.1034 9.66273 43.9338C13.3459 46.692 16.772 48.1225 21.5001 48.8761C22.5463 49.0429 26.6037 49.0407 27.7303 48.8729C32.2932 48.1927 36.2043 46.5409 39.7594 43.7922C40.8113 42.9789 43.0844 40.7048 43.9032 39.6463C46.5717 36.1973 48.2714 32.2353 48.9119 27.9712C48.9916 27.4406 49.0568 26.8121 49.0568 26.5746C49.0568 26.337 49.1 26.1426 49.1527 26.1426C49.2131 26.1426 49.2485 25.5017 49.2485 24.4116C49.2485 23.2821 49.2153 22.7013 49.1527 22.7399C49.0948 22.7757 49.0568 22.6449 49.0568 22.4094C49.0568 21.2667 48.5286 18.7169 47.8942 16.7973C46.777 13.417 44.8213 10.1974 42.2637 7.52835C38.4963 3.5968 33.6717 1.10462 28.0968 0.210347C27.2043 0.0672434 23.3232 -0.0607155 22.6503 0.0308207ZM22.219 4.04173C17.442 4.65325 13.3812 6.62449 10.0628 9.94299C2.76282 17.243 1.97944 28.7249 8.21866 36.9736C9.05083 38.0738 11.1347 40.1382 12.2507 40.9681C17.7818 45.0809 24.6817 46.1989 31.1645 44.0326C34.2795 42.9918 36.7571 41.4363 39.1881 38.9954C41.5659 36.608 43.1168 34.1037 44.1718 30.9484C45.6736 26.4566 45.5456 21.4592 43.8153 17.0369C41.4464 10.9819 36.2669 6.30541 30.0786 4.63427C27.7223 3.99793 24.4741 3.75304 22.219 4.04173ZM21.8356 5.62737C17.6654 6.27359 14.1211 8.06731 11.1398 11.0406C8.03176 14.1402 6.14793 18.038 5.62833 22.4441C5.4697 23.7885 5.56584 26.5799 5.81687 27.9181C6.52481 31.693 8.20994 34.9712 10.8576 37.7236C13.9159 40.9028 17.735 42.8355 22.1711 43.4487C23.7144 43.662 26.5067 43.5969 28.0202 43.3122C32.082 42.5481 35.5564 40.663 38.4283 37.6652C41.3067 34.6606 43.0682 30.9244 43.5887 26.7202C43.7341 25.5459 43.7122 23.3572 43.542 22.0499C43.278 20.0216 42.7594 18.2689 41.8746 16.4139C40.8457 14.2566 39.758 12.7124 38.0878 11.0377C35.0312 7.9728 31.1448 6.07614 26.8223 5.53986C25.586 5.3865 23.1094 5.42992 21.8356 5.62737ZM24.0837 6.53708C23.8641 6.75667 23.8484 6.83852 23.8484 7.77018C23.8484 8.63455 23.875 8.80181 24.0471 9.02053C24.2003 9.21539 24.3303 9.2731 24.6152 9.2731C24.9002 9.2731 25.0302 9.21539 25.1833 9.02053C25.3555 8.80181 25.382 8.63455 25.382 7.77018C25.382 6.83852 25.3664 6.75667 25.1467 6.53708C24.9984 6.3887 24.8019 6.30177 24.6152 6.30177C24.4285 6.30177 24.232 6.3887 24.0837 6.53708ZM11.9631 11.5058C11.8313 11.5724 11.6657 11.7475 11.5951 11.895C11.4073 12.2865 11.5759 12.6065 12.3595 13.3456C13.1126 14.0561 13.4812 14.1547 13.8634 13.7479C14.2374 13.3498 14.1458 13.0014 13.4798 12.2896C12.9489 11.722 12.4949 11.3792 12.2794 11.3832C12.2372 11.384 12.0949 11.4392 11.9631 11.5058ZM35.8597 12.1787C34.9903 13.048 34.9059 13.2652 35.2615 13.7172C35.4079 13.9032 35.5476 13.9697 35.7924 13.9697C36.0698 13.9697 36.2391 13.8635 36.8159 13.3275C37.538 12.6566 37.7522 12.3344 37.6742 12.0364C37.6095 11.789 37.1023 11.3818 36.8588 11.3818C36.7333 11.3818 36.3546 11.6839 35.8597 12.1787ZM24.1286 12.0453L23.8484 12.3255V17.2109V22.0961L23.6328 22.1505C23.2308 22.2517 22.6393 22.7761 22.3709 23.2691C21.1254 25.5576 23.5708 28.003 25.8593 26.7575C26.3523 26.4891 26.8767 25.8976 26.9779 25.4956L27.0323 25.2799H29.9979C32.4133 25.2799 33.0139 25.254 33.2348 25.1397C33.695 24.9017 33.7676 24.3594 33.3898 23.9817L33.1545 23.7464H30.0934H27.0323L26.975 23.5183C26.8881 23.172 26.0858 22.3329 25.7126 22.1979L25.382 22.0784V17.202V12.3255L25.1019 12.0453C24.9477 11.8912 24.7288 11.7652 24.6152 11.7652C24.5016 11.7652 24.2827 11.8912 24.1286 12.0453ZM0.117567 24.5131C0.117567 25.4884 0.131849 25.8873 0.149198 25.3998C0.166642 24.9121 0.166642 24.1141 0.149198 23.6265C0.131849 23.1389 0.117567 23.5379 0.117567 24.5131ZM24.0507 23.5926C23.3899 23.9589 23.412 25.1461 24.0854 25.453C24.8706 25.8108 25.6696 25.3367 25.6696 24.5131C25.6696 23.6816 24.7913 23.1821 24.0507 23.5926ZM6.75226 23.945C6.5574 24.0982 6.4997 24.2282 6.4997 24.5131C6.4997 24.7981 6.5574 24.9281 6.75226 25.0812C6.96926 25.2521 7.13882 25.2799 7.95776 25.2799C8.88318 25.2799 8.91875 25.2719 9.19086 24.9998C9.53659 24.654 9.55231 24.2982 9.23572 23.9817C9.01613 23.762 8.93427 23.7464 8.00262 23.7464C7.13825 23.7464 6.97099 23.7729 6.75226 23.945ZM40.1078 23.945C39.7511 24.2256 39.7511 24.8007 40.1078 25.0812C40.3248 25.2521 40.4944 25.2799 41.3133 25.2799C42.2388 25.2799 42.2743 25.2719 42.5464 24.9998C42.8922 24.654 42.9079 24.2982 42.5913 23.9817C42.3717 23.762 42.2899 23.7464 41.3582 23.7464C40.4938 23.7464 40.3266 23.7729 40.1078 23.945ZM12.3595 35.6807C11.5747 36.4209 11.4072 36.7396 11.5959 37.1333C11.667 37.2817 11.8467 37.4613 11.9951 37.5325C12.3888 37.7212 12.7075 37.5536 13.4477 36.7688C14.1582 36.0157 14.2568 35.6472 13.85 35.265C13.4451 34.8847 13.1018 34.9805 12.3595 35.6807ZM35.367 35.2784C34.9868 35.6832 35.0826 36.0266 35.7827 36.7688C36.523 37.5536 36.8417 37.7212 37.2353 37.5325C37.3838 37.4613 37.5634 37.2817 37.6345 37.1333C37.8233 36.7396 37.6557 36.4209 36.8709 35.6807C36.1178 34.9702 35.7493 34.8716 35.367 35.2784ZM24.0471 40.0058C23.875 40.2245 23.8484 40.3917 23.8484 41.2561C23.8484 42.1878 23.8641 42.2696 24.0837 42.4892C24.232 42.6376 24.4285 42.7245 24.6152 42.7245C24.8019 42.7245 24.9984 42.6376 25.1467 42.4892C25.3664 42.2696 25.382 42.1878 25.382 41.2561C25.382 40.3917 25.3555 40.2245 25.1833 40.0058C25.0302 39.8109 24.9002 39.7532 24.6152 39.7532C24.3303 39.7532 24.2003 39.8109 24.0471 40.0058Z" fill="#5DB7D1"/>
</svg>
