<svg width="48" height="48" viewBox="0 0 48 48" fill="none" xmlns="http://www.w3.org/2000/svg">
<path fill-rule="evenodd" clip-rule="evenodd" d="M48 24C48 37.2547 37.2547 48 24 48C10.7452 48 0 37.2547 0 24C0 10.7452 10.7452 0 24 0C37.2547 0 48 10.7452 48 24ZM16.7271 16.7272C17.43 16.0242 18.5697 16.0242 19.2727 16.7272L24 21.4543L28.727 16.7272C29.43 16.0243 30.5698 16.0243 31.2727 16.7272C31.9757 17.4301 31.9757 18.5699 31.2727 19.2727L26.5454 24L31.2727 28.727C31.9757 29.43 31.9757 30.5698 31.2727 31.2727C30.5698 31.9757 29.43 31.9757 28.727 31.2727L24 26.5457L19.2727 31.2727C18.5698 31.9757 17.4301 31.9757 16.7272 31.2727C16.0242 30.5698 16.0242 29.43 16.7272 28.7273L21.4543 24L16.7271 19.2727C16.0242 18.5698 16.0242 17.4301 16.7271 16.7272Z" fill="#333333"/>
</svg>
