<svg width="54" height="49" viewBox="0 0 54 49" fill="none" xmlns="http://www.w3.org/2000/svg">
<path fill-rule="evenodd" clip-rule="evenodd" d="M10.6071 0.0416748C9.6771 0.204802 8.83542 1.05864 8.68652 1.9898L8.61906 2.41127L6.19452 2.4497L3.76986 2.48802L2.99448 2.85523C2.07893 3.28897 1.1168 4.15841 0.69521 4.9331C0.00679293 6.19785 0.0415522 5.09898 0.0415522 25.622C0.0415522 39.1019 0.0780322 44.5775 0.170609 45.0138C0.605846 47.0631 2.30377 48.6183 4.4008 48.888C5.56139 49.0373 48.4387 49.0373 49.5993 48.888C51.675 48.6209 53.2473 47.2141 53.7874 45.1406C53.9358 44.5713 53.9586 41.9874 53.9586 25.7671C53.9586 13.7102 53.9175 6.83075 53.8433 6.43268C53.5603 4.91669 52.4786 3.55305 51.0057 2.85523L50.2303 2.48802L47.7925 2.44947C45.3825 2.41139 45.3548 2.40817 45.3523 2.16268C45.3484 1.7801 44.9424 0.971915 44.5859 0.636827C44.1305 0.209047 43.5814 0.00519463 42.8839 0.00519463C41.769 0.00519463 40.8046 0.768752 40.5206 1.87635L40.3786 2.43066H37.5988H34.8191L34.7385 2.05783C34.4654 0.792039 33.5345 0.00519463 32.3101 0.00519463C31.126 0.00519463 30.0458 0.879913 29.9015 1.9555L29.8378 2.43066H27.0001H24.1623L24.0986 1.9555C23.9543 0.879913 22.8742 0.00519463 21.69 0.00519463C20.4657 0.00519463 19.5347 0.792039 19.2616 2.05783L19.1811 2.43066H16.4014H13.6215L13.4795 1.87635C13.1467 0.578207 11.9404 -0.192348 10.6071 0.0416748ZM4.97439 10.9771V14.5907H27.0001H49.0257V10.9771V7.36349H47.1903H45.3548L45.3523 8.82614C45.3495 10.4461 45.1967 10.9923 44.5859 11.5664C43.5801 12.5114 41.9107 12.3952 41.0229 11.3181C40.5407 10.7331 40.422 10.2156 40.422 8.69811V7.36349H37.6226H34.8233L34.7804 8.88349C34.7354 10.4794 34.6316 10.8581 34.0704 11.4758C33.0842 12.5611 31.1816 12.4058 30.2858 11.1671C29.927 10.6709 29.9252 10.6614 29.8882 9.01611L29.851 7.36349H27.0001H24.1491L24.112 9.01611C24.0749 10.6614 24.0732 10.6709 23.7143 11.1671C22.8185 12.4058 20.9159 12.5611 19.9297 11.4758C19.3685 10.8581 19.2647 10.4794 19.2197 8.88349L19.1768 7.36349H16.3775H13.5782V8.69811C13.5782 10.2156 13.4594 10.7331 12.9773 11.3181C12.0778 12.4093 10.38 12.5137 9.40327 11.538C8.78288 10.9183 8.65061 10.4435 8.64786 8.82614L8.64533 7.36349H6.80986H4.97439V10.9771ZM35.948 22.9945C35.6418 23.0866 34.1434 24.5135 29.6368 29.0046L23.7272 34.8941L21.2051 32.3634C19.818 30.9716 18.5383 29.7559 18.3614 29.6622C17.8287 29.3797 16.9738 29.3317 16.3968 29.5521C15.8638 29.7556 15.1371 30.4582 14.9496 30.9513C14.7655 31.4358 14.8224 32.3776 15.0663 32.8814C15.212 33.1824 16.5696 34.6173 18.8806 36.9128C22.6306 40.6375 22.768 40.7462 23.7306 40.7462C24.7409 40.7462 24.6081 40.8625 31.85 33.6437C36.4242 29.0839 38.7828 26.6527 38.9337 26.3416C39.2295 25.7322 39.2311 24.8157 38.9374 24.2401C38.3686 23.1253 37.1716 22.6265 35.948 22.9945Z" fill="#5DB7D1"/>
</svg>
