<svg width="15" height="18" viewBox="0 0 15 18" fill="none" xmlns="http://www.w3.org/2000/svg">
<path fill-rule="evenodd" clip-rule="evenodd" d="M6.59978 0.478934C6.15365 0.741641 5.74896 0.977298 5.70046 1.00258C5.65081 1.02851 5.18076 1.08987 4.62481 1.14302C4.08169 1.19493 3.61658 1.24833 3.59126 1.26169C3.56594 1.27503 3.35962 1.7092 3.13278 2.22651L2.72037 3.16705L1.97975 3.8225C1.57241 4.18297 1.22513 4.49882 1.20799 4.52439C1.18838 4.55373 1.25751 4.94143 1.39502 5.57349L1.61314 6.57607L1.39812 7.56004C1.27987 8.10122 1.18778 8.56509 1.1935 8.59087C1.19921 8.61661 1.54508 8.94058 1.96212 9.31078L2.72037 9.9839L3.13307 10.9204C3.36005 11.4355 3.55504 11.8662 3.5664 11.8775C3.58361 11.8948 5.38761 12.0906 5.56264 12.0943C5.59353 12.0949 6.02619 12.3337 6.52414 12.6249L7.42949 13.1543L8.26663 12.6654C8.72705 12.3964 9.13551 12.1599 9.17431 12.1398C9.2131 12.1196 9.69288 12.0589 10.2405 12.0048C10.7881 11.9507 11.2527 11.8962 11.2729 11.8837C11.2931 11.8713 11.4957 11.439 11.7232 10.9231L12.1368 9.98517L12.8774 9.32969C13.2847 8.96918 13.6322 8.65297 13.6496 8.62702C13.6698 8.59676 13.6026 8.21897 13.4626 7.57577L13.244 6.57174L13.4574 5.59419C13.5748 5.05658 13.6709 4.59584 13.6709 4.57034C13.6709 4.54481 13.3257 4.21771 12.9038 3.84338L12.1368 3.16282L11.7246 2.22834C11.4979 1.71439 11.2995 1.28222 11.2838 1.26794C11.268 1.25362 10.8028 1.19864 10.25 1.14574L9.24484 1.04949L8.34203 0.524111C7.8455 0.23513 7.43287 -0.000738877 7.42508 1.73937e-06C7.41732 0.000707088 7.04592 0.216226 6.59978 0.478934ZM6.59978 2.25557C3.95575 2.7916 2.4578 5.59529 3.48377 8.08788C4.03993 9.43916 5.331 10.4486 6.78307 10.6675C9.36592 11.0568 11.6968 9.05904 11.6958 6.45684C11.6951 4.60424 10.5153 2.96822 8.75893 2.38433C8.1384 2.17801 7.24511 2.12476 6.59978 2.25557ZM6.84666 3.25716C4.75759 3.65928 3.60149 5.89862 4.49668 7.80892C4.66925 8.17722 4.80122 8.37027 5.08819 8.67452C5.46435 9.07322 5.93394 9.36566 6.46877 9.53424C8.22519 10.0878 10.0934 9.04395 10.5656 7.2451C11.0104 5.55032 9.9528 3.75761 8.243 3.3083C7.8959 3.21706 7.18931 3.19121 6.84666 3.25716ZM7.82547 5.89682L7.00585 6.71647L6.59985 6.31164L6.19382 5.90677L5.82365 6.27694L5.45349 6.6471L6.22948 7.42249L7.00547 8.19788L8.20431 6.99942L9.40312 5.801L9.04248 5.43909C8.84413 5.24007 8.67355 5.07721 8.66346 5.07721C8.65337 5.07721 8.27626 5.44604 7.82547 5.89682ZM1.15576 13.6543C0.514388 14.7638 -0.00570139 15.6763 4.72001e-05 15.6821C0.0110859 15.6931 2.17679 15.6345 2.72767 15.6082L3.05241 15.5927L3.77641 16.7639C4.17462 17.408 4.52049 17.9615 4.545 17.9938C4.58347 18.0446 4.74814 17.7834 5.75337 16.0769C6.39347 14.9903 6.92192 14.0881 6.92767 14.072C6.93345 14.0559 6.56843 13.8278 6.11651 13.5651L5.29489 13.0875L4.18396 12.9789C3.57296 12.9192 3.02543 12.8624 2.96724 12.8526C2.86778 12.8359 2.84581 12.7989 2.60116 12.2359C2.45801 11.9065 2.33662 11.637 2.3314 11.637C2.32622 11.637 1.79717 12.5448 1.15576 13.6543ZM12.2564 12.2342C12.0314 12.7513 11.9836 12.8357 11.9075 12.8507C11.859 12.8603 11.3115 12.9182 10.6908 12.9794L9.56225 13.0906L8.74094 13.5676C8.2892 13.83 7.92418 14.0573 7.92979 14.0727C7.93536 14.0881 8.46367 14.9901 9.10377 16.0771C10.1105 17.7866 10.2736 18.0454 10.3121 17.9942C10.3367 17.9617 10.6823 17.4084 11.0802 16.7648L11.8036 15.5946L12.1641 15.6089C12.9847 15.6415 14.8468 15.6924 14.8567 15.6825C14.8671 15.6721 12.5757 11.6938 12.5369 11.655C12.526 11.6441 12.3997 11.9047 12.2564 12.2342Z" fill="#86D1E6"/>
</svg>
