<svg width="25" height="24" viewBox="0 0 25 24" fill="none" xmlns="http://www.w3.org/2000/svg">
<path fill-rule="evenodd" clip-rule="evenodd" d="M19.3185 16.9453C19.0293 17.764 17.8797 18.4412 16.9629 18.6393C16.3353 18.7725 15.5168 18.8779 12.7592 17.7352C9.66205 16.452 5.36126 11.8812 5.36126 8.83945C5.36126 7.29099 6.25405 5.48789 7.81525 5.48789C8.56645 5.48789 8.73205 5.50254 8.97925 6.09551C9.26845 6.79412 9.97406 8.51535 10.0581 8.6918C10.4049 9.41561 9.70524 9.83934 9.19764 10.4695C9.03564 10.6592 8.85206 10.8643 9.05726 11.2172C9.26126 11.5629 9.96685 12.7129 11.0037 13.6359C12.3429 14.8291 13.4289 15.21 13.8177 15.3721C14.1069 15.4921 14.4525 15.4641 14.6637 15.2385C14.9313 14.9492 15.2637 14.4692 15.6021 13.9963C15.8409 13.6578 16.1445 13.6155 16.4625 13.7355C16.6773 13.81 19.4072 15.0778 19.5224 15.2807C19.6076 15.4283 19.6077 16.1267 19.3185 16.9453ZM12.3357 0H12.3296C5.71405 0 0.333252 5.38242 0.333252 12C0.333252 14.624 1.17926 17.0584 2.61806 19.033L1.12286 23.492L5.73446 22.0184C7.63166 23.2739 9.89605 24 12.3357 24C18.9513 24 24.3333 18.6176 24.3333 12C24.3333 5.38242 18.9513 0 12.3357 0Z" fill="#5DB7D1"/>
</svg>
