<svg width="16" height="16" viewBox="0 0 16 16" fill="none" xmlns="http://www.w3.org/2000/svg">
<path d="M8.17605 9.13207L11.833 5.47507C11.8996 5.40198 11.9801 5.34299 12.0699 5.30159C12.1597 5.26018 12.2568 5.23721 12.3556 5.23403C12.4544 5.23084 12.5529 5.24751 12.6451 5.28305C12.7374 5.31859 12.8215 5.37227 12.8927 5.44092C12.9638 5.50957 13.0204 5.59179 13.0592 5.68272C13.098 5.77364 13.1181 5.87143 13.1184 5.97028C13.1188 6.06913 13.0992 6.16704 13.061 6.25821C13.0228 6.34938 12.9667 6.43197 12.896 6.50107L12.878 6.51907L8.69905 10.6991C8.56046 10.8376 8.37252 10.9155 8.17655 10.9155C7.98058 10.9155 7.79263 10.8376 7.65405 10.6991L3.47505 6.52007C3.40525 6.45264 3.34942 6.37212 3.31074 6.2831C3.27206 6.19409 3.25129 6.09834 3.24962 6.0013C3.24795 5.90426 3.26541 5.80784 3.301 5.71755C3.33659 5.62726 3.38961 5.54487 3.45705 5.47507C3.52448 5.40527 3.605 5.34944 3.69401 5.31076C3.78302 5.27208 3.87878 5.25132 3.97582 5.24964C4.07286 5.24797 4.16927 5.26543 4.25956 5.30102C4.34985 5.33661 4.43225 5.38964 4.50205 5.45707L4.52005 5.47507L8.17605 9.13207Z" fill="black" stroke="black" stroke-width="0.5"/>
</svg>
