<svg width="81" height="82" viewBox="0 0 81 82" fill="none" xmlns="http://www.w3.org/2000/svg">
<path d="M74.4681 0.936279H6.4123C2.93074 0.936279 0.11084 3.75618 0.11084 7.23774V75.2935C0.11084 78.7751 2.93074 81.595 6.4123 81.595H74.4681C77.9497 81.595 80.7696 78.7751 80.7696 75.2935V7.23774C80.7696 3.75618 77.9497 0.936279 74.4681 0.936279ZM49.341 34.4286L48.8842 40.4622H42.693V61.4146H34.8792V40.4622H30.7044V34.4286H34.8792V30.3799C34.8792 28.5997 34.9264 25.8428 36.2182 24.1257C37.5888 22.314 39.4635 21.0852 42.693 21.0852C47.9547 21.0852 50.1602 21.8414 50.1602 21.8414L49.1205 28.0168C49.1205 28.0168 47.3876 27.5127 45.7649 27.5127C44.1423 27.5127 42.693 28.0956 42.693 29.7182V34.4286H49.341Z" fill="#86D1E6"/>
</svg>
