<svg width="20" height="18" viewBox="0 0 20 18" fill="none" xmlns="http://www.w3.org/2000/svg">
<path fill-rule="evenodd" clip-rule="evenodd" d="M5.22747 0.0195328C4.4601 0.136123 3.86592 0.313952 3.31182 0.592935C1.61114 1.44914 0.478836 2.91781 0.0752719 4.79082C-0.0322751 5.29008 -0.022452 6.42141 0.0941385 6.96062C0.23517 7.61296 0.538359 8.37066 0.865951 8.88965L0.960089 9.03875L3.11329 9.03859L5.26645 9.03848L5.69524 8.32794C6.10578 7.64765 6.1317 7.61425 6.30438 7.54322C6.53749 7.44737 6.72861 7.48062 6.90445 7.64754C6.97648 7.71595 7.3956 8.34006 7.83585 9.03446L8.63627 10.2971L8.88859 9.76437C9.02732 9.47139 9.5573 8.35067 10.0663 7.27391C10.5752 6.19711 11.0237 5.26926 11.0628 5.21196C11.102 5.15466 11.2119 5.07802 11.3072 5.04162C11.5472 4.94997 11.7341 4.99075 11.9107 5.17317C11.9974 5.26275 12.4201 6.01067 13.043 7.1765L14.037 9.03688L16.5008 9.03781L18.9646 9.03875L19.1263 8.76199C19.4487 8.20987 19.679 7.61347 19.8246 6.95329C19.8671 6.76034 19.9023 6.53671 19.9027 6.45629C19.9032 6.37592 19.9211 6.31012 19.9426 6.31012C19.9666 6.31012 19.9816 6.10796 19.9816 5.78158C19.9816 5.43914 19.9678 5.26154 19.9426 5.27714C19.9198 5.29121 19.9036 5.25133 19.9036 5.18132C19.9036 4.80664 19.6214 3.8722 19.3375 3.30679C18.7923 2.22123 17.7534 1.1686 16.7005 0.635073C15.3308 -0.0590128 13.7468 -0.190572 12.3291 0.272009C11.6262 0.501292 10.8561 0.923723 10.23 1.42318C9.96348 1.6359 9.96087 1.63695 9.87125 1.56674C8.79149 0.720986 8.02241 0.33621 6.9536 0.107044C6.6013 0.0314608 5.51226 -0.0236965 5.22747 0.0195328ZM7.41345e-07 5.82286C3.97218e-05 6.12301 0.00615965 6.24065 0.0135659 6.08426C0.0210112 5.92791 0.0209332 5.68234 0.013488 5.53854C0.00600373 5.39478 -7.72195e-05 5.52271 7.41345e-07 5.82286ZM10.376 9.34085C9.48597 11.2231 9.18909 11.8155 9.0879 11.9112C8.91112 12.0783 8.72008 12.1114 8.48764 12.0151C8.31203 11.9423 8.28654 11.9074 7.44971 10.5925C6.97785 9.85118 6.57549 9.23774 6.55561 9.22936C6.53569 9.22102 6.42168 9.37499 6.30224 9.57157C6.18277 9.76815 6.04996 9.96792 6.00708 10.0155C5.836 10.2053 5.80423 10.208 3.7767 10.2097L1.87515 10.2113L5.73422 14.0513C7.88196 16.1884 9.64891 17.9163 9.71872 17.9478C9.88326 18.0219 10.0709 18.0169 10.2222 17.9344C10.2894 17.8978 12.076 16.1444 14.1924 14.038L18.0405 10.2082H15.8229H13.6053L13.4322 10.1205C13.2621 10.0343 13.2447 10.0058 12.4202 8.46511C11.9588 7.60294 11.5703 6.89689 11.557 6.89615C11.5436 6.89541 11.0122 7.99555 10.376 9.34085Z" fill="#86D1E6"/>
</svg>
