<svg width="63" height="49" viewBox="0 0 63 49" fill="none" xmlns="http://www.w3.org/2000/svg">
<path fill-rule="evenodd" clip-rule="evenodd" d="M26.4465 7.09988C23.8285 11.0269 21.6716 14.303 21.6534 14.38C21.6353 14.4572 22.4948 15.393 23.5636 16.4596L25.5067 18.3987L24.7306 20.696C23.8102 23.42 23.6094 23.8396 22.8939 24.5349C22.0941 25.3123 21.2527 25.5918 19.7336 25.5846C17.1642 25.5723 15.4901 24.7187 14.6503 22.9923C13.8545 21.3567 13.926 20.0868 14.9261 18.0937C15.2626 17.4233 15.5208 16.8616 15.4999 16.8457C15.4219 16.7864 0.0820307 11.3242 0.0527382 11.3453C0.035895 11.3574 1.57375 17.3631 3.4702 24.6913L6.91817 38.0153H15.0339H23.1498L27.2086 33.9578L31.2676 29.9002L35.3265 33.9578L39.3854 38.0153L47.5012 38.0141L55.617 38.0129L59.0282 24.8247C60.9044 17.5711 62.4835 11.6092 62.5372 11.576C62.591 11.5428 62.6349 11.4297 62.6349 11.3248C62.6349 11.1861 62.5933 11.1685 62.4824 11.2604C62.3985 11.33 58.8971 12.608 54.7016 14.1005C50.506 15.5931 47.058 16.826 47.0395 16.8403C47.0208 16.8547 47.2826 17.437 47.6213 18.1344C48.6065 20.1634 48.664 21.4825 47.8349 23.0421C46.3973 25.7465 42.0338 26.5742 39.7608 24.5735C38.9575 23.8663 38.6764 23.3133 37.8042 20.7232L37.0306 18.426L38.9936 16.4483L40.9565 14.4706L36.1478 7.2555C33.5031 3.28722 31.3093 0.0222053 31.2728 0.000113881C31.2364 -0.0219775 29.0645 3.17286 26.4465 7.09988ZM0.0318673 11.4791C0.0377258 11.6213 0.0666521 11.6502 0.105587 11.553C0.14086 11.4648 0.136466 11.3595 0.0959446 11.319C0.0554233 11.2785 0.026619 11.3505 0.0318673 11.4791ZM28.8558 37.5587L26.5075 39.9094L28.8581 42.2578L31.2089 44.6061L33.5865 42.2261L35.9642 39.8461L33.6476 37.5271C32.3735 36.2517 31.3025 35.2081 31.2676 35.2081C31.2328 35.2081 30.1475 36.2659 28.8558 37.5587ZM7.4674 45.3384V49H18.9701H30.4726L26.8127 45.3384L23.1527 41.6769H15.31H7.4674V45.3384ZM35.7225 45.3384L32.0625 49H43.565H55.0677V45.3384V41.6769H47.2251H39.3824L35.7225 45.3384Z" fill="#5DB7D1"/>
</svg>
