<svg width="22" height="18" viewBox="0 0 22 18" fill="none" xmlns="http://www.w3.org/2000/svg">
<path fill-rule="evenodd" clip-rule="evenodd" d="M18.3867 0.0776904C17.3471 0.129904 16.4448 0.185507 16.3816 0.201258C16.0722 0.278482 15.835 0.643562 15.8931 0.953162C15.9169 1.07987 16.0272 1.21431 16.5063 1.7006L17.0905 2.29351L13.3616 6.02244L9.63263 9.75137L7.88545 8.01205C6.77901 6.91056 6.08143 6.2468 5.9832 6.20203C5.73788 6.09016 5.45743 6.07337 5.20318 6.15539C4.9933 6.22311 4.84567 6.36172 2.58896 8.60996C-0.0136411 11.2028 1.46847e-06 11.1869 1.46847e-06 11.6335C1.46847e-06 11.9543 0.136426 12.2189 0.462066 12.5296C0.673979 12.7317 0.77915 12.7992 0.967829 12.854C1.24411 12.9344 1.49806 12.9113 1.7552 12.7826C1.85843 12.7309 2.60769 12.0153 3.73017 10.8963L5.53879 9.09327L7.30614 10.8544C8.95833 12.5009 9.08797 12.6203 9.29616 12.6878C9.56909 12.7764 9.8758 12.7534 10.1327 12.625C10.2601 12.5613 11.5745 11.2752 14.5724 8.28068L18.8312 4.02684L19.3059 4.50664C19.9158 5.12295 20.054 5.22576 20.2727 5.22552C20.5572 5.22514 20.8472 5.00054 20.9492 4.70152C20.9738 4.62922 21.0359 3.66929 21.0872 2.56838L21.1804 0.566709L21.08 0.36629C20.9631 0.132963 20.7959 0.0308514 20.4835 0.00191293C20.3698 -0.00862894 19.4262 0.0254771 18.3867 0.0776904ZM17.2277 7.36531L15.6673 8.92613V13.3211C15.6673 16.3903 15.6808 17.7412 15.7119 17.7995C15.81 17.9827 15.9531 18 17.3713 17.9999C18.8832 17.9999 18.9499 17.9883 19.0446 17.7106C19.0818 17.6014 19.0945 16.1576 19.0963 11.8173L19.0986 6.06874L18.9622 5.93662C18.8873 5.86394 18.8174 5.80449 18.807 5.80449C18.7966 5.80449 18.0859 6.50687 17.2277 7.36531ZM12.8355 11.8004C12.0169 12.62 11.2495 13.3665 11.1302 13.4593L10.9131 13.6279V15.6467C10.9131 17.0383 10.9274 17.6967 10.959 17.7661C11.053 17.9724 11.108 17.9793 12.6524 17.9793H14.0897L14.1958 17.8797C14.2541 17.8249 14.312 17.7226 14.3245 17.6523C14.337 17.5821 14.342 15.9013 14.3355 13.9174L14.3237 10.3102L12.8355 11.8004ZM6.16849 14.6211L6.17961 17.7501L6.29416 17.8647L6.40876 17.9793L7.72042 17.9924C8.44186 17.9995 9.10955 17.994 9.20418 17.98C9.30931 17.9645 9.41783 17.9131 9.48323 17.8477L9.59022 17.7407V15.8653V13.99L9.43519 13.9895C9.21468 13.9888 8.87283 13.8903 8.55856 13.7369C8.32751 13.6241 8.13238 13.4505 7.22268 12.5485L6.15741 11.4922L6.16849 14.6211ZM3.76118 12.6402C2.93552 13.4596 2.64874 13.7183 2.43828 13.8335C2.16295 13.9842 1.87542 14.0871 1.60113 14.1331L1.4461 14.1591V15.9376C1.4461 17.1325 1.46078 17.7434 1.49075 17.7995C1.58872 17.9825 1.73251 18 3.14107 18C4.21134 18 4.49452 17.9883 4.61147 17.9395C4.88544 17.825 4.87738 17.9266 4.87738 14.5907C4.87738 12.9415 4.8634 11.5926 4.84637 11.5931C4.82934 11.5936 4.34098 12.0648 3.76118 12.6402Z" fill="#86D1E6"/>
</svg>
