<svg width="21" height="18" viewBox="0 0 21 18" fill="none" xmlns="http://www.w3.org/2000/svg">
<path fill-rule="evenodd" clip-rule="evenodd" d="M6.62557 0.043569C6.54661 0.0731071 6.41627 0.1379 6.33603 0.187488C6.24138 0.245968 5.50984 1.12433 4.25574 2.68528C3.19185 4.00941 2.28316 5.14682 2.23643 5.21281C2.10693 5.39563 2.01144 5.76855 2.04031 5.97901C2.06897 6.18804 2.21575 6.51601 2.34875 6.66815C2.39988 6.72667 4.77142 8.43734 7.61883 10.4696L12.7959 14.1647H13.0028C13.1534 14.1647 13.2464 14.1397 13.3448 14.0729C13.5732 13.9179 19.1908 9.42003 19.2728 9.32649C19.3867 9.19655 19.403 8.82347 19.3018 8.6626C19.2214 8.53476 7.82516 0.274633 7.49746 0.106695C7.28367 -0.00288193 6.83631 -0.0352785 6.62557 0.043569ZM14.6062 8.45834C14.4507 8.56224 14.3325 8.7719 14.3325 8.94389C14.3325 9.11588 14.4507 9.32554 14.6062 9.42944C14.889 9.6183 15.2999 9.50765 15.4539 9.20116C15.6493 8.81228 15.3689 8.36821 14.9279 8.36821C14.7998 8.36821 14.6987 8.39652 14.6062 8.45834ZM4.46779 10.1962C4.17868 10.6087 4.11643 10.7567 4.14954 10.9527C4.18305 11.1508 4.28194 11.2722 4.56859 11.4669L4.80223 11.6255L4.65423 11.7568C4.34773 12.0287 3.91065 12.2806 3.4947 12.425C3.04762 12.5803 2.75911 12.6163 1.96273 12.6163H1.19113V11.9176C1.19113 11.1391 1.16234 11.0187 0.938109 10.8587C0.764851 10.7351 0.426354 10.7351 0.253096 10.8587C-0.0116346 11.0476 7.73929e-05 10.8844 7.73929e-05 14.383C7.73929e-05 17.8816 -0.0116346 17.7185 0.253096 17.9073C0.426354 18.0309 0.764851 18.0309 0.938109 17.9073C1.15953 17.7494 1.19113 17.6229 1.19113 16.8944V16.2416L1.95538 16.2151C2.83299 16.1846 3.32664 16.1193 3.96528 15.9489C5.28453 15.5969 6.49142 14.8966 7.44085 13.932L7.71546 13.6531L8.06305 13.8935C8.65683 14.3043 8.89826 14.2604 9.3021 13.6683C9.42661 13.4858 9.52757 13.3218 9.52645 13.3039C9.52423 13.2688 4.85706 9.93445 4.75578 9.89558C4.71235 9.8789 4.62941 9.96545 4.46779 10.1962ZM17.6044 12.202C16.3834 13.1752 15.362 13.9933 15.3345 14.0201C15.2948 14.059 15.4213 14.1674 15.9563 14.5531C16.3258 14.8195 16.6755 15.0554 16.7334 15.0774C16.9043 15.1424 17.0905 15.1237 17.2347 15.0271C17.3661 14.939 19.9846 11.739 20.2128 11.3877C20.411 11.0823 20.3477 10.7719 20.0391 10.5366C19.9643 10.4794 19.8853 10.4327 19.8637 10.4327C19.842 10.4327 18.8253 11.2289 17.6044 12.202Z" fill="#86D1E6"/>
</svg>
