<svg width="31" height="47" viewBox="0 0 31 47" fill="none" xmlns="http://www.w3.org/2000/svg">
<path fill-rule="evenodd" clip-rule="evenodd" d="M13.7642 0.0685522C10.2969 0.537118 6.88828 2.36647 4.60284 4.98545C0.618576 9.55118 -0.217754 15.7318 2.41989 21.1173C2.94228 22.1838 3.41713 22.8996 4.83258 24.7541C6.27766 26.6475 7.40148 28.7785 8.04718 30.8494L8.30083 31.6629H15.5867H22.8725L23.267 30.4673C23.9932 28.2664 25.1429 26.1798 26.7932 24.0675C27.2163 23.526 27.733 22.8298 27.9413 22.5203C28.8739 21.1355 29.7717 18.8891 30.096 17.1286C30.3224 15.8999 30.3208 13.2915 30.0929 12.0713C28.9854 6.14097 24.296 1.42371 18.3369 0.245308C17.1807 0.0166976 14.8228 -0.0744463 13.7642 0.0685522ZM8.70741 33.9837C8.73432 34.1254 8.78599 34.6424 8.82228 35.1323L8.8882 36.0231H15.5927H22.2972L22.3636 35.0855C22.4002 34.5697 22.4537 34.0529 22.4826 33.9368L22.5352 33.7258H15.5968H8.65846L8.70741 33.9837ZM8.90442 38.0073C8.86973 38.042 8.84131 38.8665 8.84131 39.8395C8.84131 42.1142 8.94024 42.3775 9.85384 42.534C10.1396 42.583 10.1803 42.6365 10.3918 43.2424C10.9539 44.8531 12.31 46.1789 13.9986 46.7686C14.8834 47.0775 16.3134 47.0771 17.2644 46.7676C18.9666 46.2136 20.3142 44.8372 20.8497 43.1054C20.998 42.626 21.0349 42.5829 21.3408 42.5327C21.8292 42.4526 22.1358 42.2106 22.2514 41.8138C22.3143 41.5976 22.343 40.7925 22.3256 39.727L22.2972 37.9923L15.6324 37.9682C11.9667 37.955 8.93921 37.9726 8.90442 38.0073Z" fill="#86D1E6"/>
</svg>
