<svg width="48" height="48" viewBox="0 0 48 48" fill="none" xmlns="http://www.w3.org/2000/svg">
<rect x="9.01196" y="8.49393" width="30.2917" height="30.2917" fill="black"/>
<path fill-rule="evenodd" clip-rule="evenodd" d="M21.8575 0.0590254C14.3275 0.788073 7.68344 4.88042 3.58669 11.3127C3.31774 11.7348 2.80657 12.6789 2.45064 13.4106C0.733534 16.94 0.00622559 20.0918 0.00622559 24.0025C0.00622559 27.9617 0.741925 31.1102 2.50509 34.6967C3.73866 37.2061 5.17557 39.1583 7.32853 41.2497C10.9707 44.7878 15.3442 46.9598 20.4397 47.761C22.3314 48.0584 25.4832 48.0817 27.2674 47.8115C32.7252 46.9848 37.3821 44.6245 41.1534 40.7737C42.4034 39.4974 43.1045 38.6284 44.0675 37.1612C45.9894 34.2333 47.1959 31.087 47.7512 27.5554C48.0748 25.4971 48.0748 22.5078 47.7512 20.4495C47.073 16.1365 45.3392 12.2017 42.6655 8.90779C38.8344 4.18801 33.4101 1.1045 27.3698 0.212428C26.0386 0.0158391 23.1372 -0.0649046 21.8575 0.0590254ZM17.9572 12.0851C16.8711 12.388 16.1432 12.9795 15.6337 13.9735L15.3452 14.5363V24.0025V33.4686L15.6452 34.0612C16.3613 35.4754 17.9314 36.2705 19.4268 35.9763C19.7696 35.9089 20.1831 35.7849 20.3457 35.7008C20.8471 35.4416 34.4365 27.5916 35.2185 27.1096C36.0203 26.6153 36.4612 26.1321 36.8088 25.3666C37.124 24.6726 37.1262 23.337 36.8132 22.6483C36.5123 21.986 36.1124 21.4838 35.6158 21.1444C34.7835 20.5756 20.3987 12.3227 19.9856 12.1769C19.3272 11.9446 18.5821 11.911 17.9572 12.0851Z" fill="#D0AF21"/>
</svg>
