<svg width="33" height="24" viewBox="0 0 33 24" fill="none" xmlns="http://www.w3.org/2000/svg">
<path d="M28.4657 0H4.86866C2.36395 0 0.333252 2.0307 0.333252 4.5354V19.4646C0.333252 21.9693 2.36395 24 4.86866 24H28.4657C30.9703 24 33.0011 21.9693 33.0011 19.4646V4.5354C33.0011 2.0307 30.9703 0 28.4657 0ZM11.701 16.1932L5.34993 21.6115C4.90196 21.9938 4.22851 21.9407 3.84625 21.4922C3.46394 21.0443 3.51709 20.3708 3.96557 19.9886L10.3167 14.5703C10.7646 14.188 11.4379 14.2411 11.8203 14.6896C12.2026 15.1375 12.1494 15.811 11.701 16.1932ZM16.6672 14.1334C15.8177 14.1313 14.9942 13.849 14.3504 13.2922L14.3509 13.2927L14.3489 13.2912C14.3494 13.2917 14.35 13.2917 14.3504 13.2922L4.60572 4.83439C4.16036 4.44786 4.11296 3.77447 4.49891 3.32969C4.88537 2.88434 5.55883 2.83693 6.00354 3.22288L15.751 11.6828C15.9593 11.8682 16.3026 12.0021 16.6672 12C17.0312 12.0011 17.3687 11.8709 17.5885 11.6792L17.5932 11.675L27.3307 3.22295C27.7755 2.837 28.4489 2.8844 28.8354 3.32976C29.2213 3.77447 29.174 4.44793 28.7286 4.83445L18.9812 13.2948C18.3395 13.8458 17.5172 14.1323 16.6672 14.1334ZM29.4885 21.4922C29.1062 21.9407 28.4327 21.9938 27.9849 21.6115L21.6338 16.1932C21.1854 15.8109 21.1322 15.1375 21.5146 14.6896C21.8968 14.2411 22.5703 14.188 23.0182 14.5703L29.3693 19.9886C29.8177 20.3708 29.8708 21.0443 29.4885 21.4922Z" fill="#5DB7D1"/>
</svg>
